<?xml version="1.0" encoding="UTF-8" standalone="no"?>
<!-- Created with Inkscape (http://www.inkscape.org/) -->

<svg
   width="45.155552mm"
   height="45.155563mm"
   viewBox="0 0 45.155552 45.155564"
   version="1.1"
   id="svg1"
   xml:space="preserve"
   inkscape:version="1.3.2 (091e20e, 2023-11-25, custom)"
   sodipodi:docname="Amongus.svg"
   xmlns:inkscape="http://www.inkscape.org/namespaces/inkscape"
   xmlns:sodipodi="http://sodipodi.sourceforge.net/DTD/sodipodi-0.dtd"
   xmlns="http://www.w3.org/2000/svg"
   xmlns:svg="http://www.w3.org/2000/svg"><sodipodi:namedview
     id="namedview1"
     pagecolor="#ffffff"
     bordercolor="#000000"
     borderopacity="0.25"
     inkscape:showpageshadow="2"
     inkscape:pageopacity="0.0"
     inkscape:pagecheckerboard="0"
     inkscape:deskcolor="#d1d1d1"
     inkscape:document-units="mm"
     inkscape:zoom="0.32069453"
     inkscape:cx="528.54035"
     inkscape:cy="579.99119"
     inkscape:window-width="1920"
     inkscape:window-height="965"
     inkscape:window-x="-8"
     inkscape:window-y="-8"
     inkscape:window-maximized="1"
     inkscape:current-layer="layer3" /><defs
     id="defs1"><clipPath
       clipPathUnits="userSpaceOnUse"
       id="clipPath11"><path
         id="path12"
         style="display:inline;opacity:1;fill:#000080;stroke-width:0.0799997"
         d="m 29.080047,71.716437 c -3.763679,-1.001559 -3.900566,2.796889 -3.875901,5.776976 0.02466,2.980087 -0.461604,7.220598 3.865926,6.257303 z"
         sodipodi:nodetypes="czcc" /></clipPath></defs><g
     inkscape:groupmode="layer"
     id="layer3"
     inkscape:label="Layer 3"
     style="display:inline;opacity:1"
     transform="translate(-16.187885,-198.64634)"><g
       id="g548"
       transform="translate(313.74675,193.12405)"
       inkscape:export-filename="SK_00\botskin-default-000.png"
       inkscape:export-xdpi="96"
       inkscape:export-ydpi="96"><rect
         style="fill:none;fill-opacity:1;stroke:none;stroke-width:1.29083;stroke-linecap:round"
         id="rect534"
         width="45.155556"
         height="45.155556"
         x="-297.55887"
         y="5.5222869"
         inkscape:export-filename="SK_00\botskin-default-000.png"
         inkscape:export-xdpi="96"
         inkscape:export-ydpi="96" /><g
         id="g540"
         transform="translate(-315.56979,-9.6614757)"><g
           id="g539"><path
             id="path534"
             style="display:inline;fill:#0b0b0b;fill-opacity:1;stroke-width:0.0799999"
             d="m 33.789174,29.127163 0.16658,15.040383 c -5.75948,0.665908 -6.29181,-1.53309 -6.27508,-7.707484 0.0164,-6.036279 0.79144,-7.950893 6.1085,-7.332899 z"
             sodipodi:nodetypes="ccsc" /><path
             id="path535"
             style="display:inline;fill:#0b0b0b;fill-opacity:1;stroke-width:0.0799999"
             d="m 32.808444,30.40633 c -0.23672,3.544649 -0.0814,5.764812 0.10873,13.075729 0.0267,1.027321 -2.23178,-0.04042 -3.47752,0.346156 -0.37582,0.919623 -1.89621,5.714593 -0.98884,6.233139 3.83284,2.190423 7.92103,1.504124 9.18718,-0.737758 l 1.50763,-3.06205 c 1.08753,-0.07689 2.5613,-0.27118 4.44245,-0.01495 1.20093,0.977409 3.84167,6.02797 4.85325,5.898625 1.97994,-0.615648 4.69895,-2.190593 4.5849,-5.651788 0.2453,-0.817251 -2.76842,-3.485061 -3.34075,-3.61698 0.40847,-2.788226 0.16147,-5.338043 -0.0289,-8.159819 -0.11938,-1.769847 2.05975,-3.849144 0.45972,-7.34929 -1.11335,-2.435507 -3.2754,-6.11593 -9.43714,-5.976648 -6.16174,0.139283 -7.43557,2.49972 -7.87071,9.015634 z"
             sodipodi:nodetypes="sscscccsccsscs" /><path
             id="path536"
             style="display:inline;fill:#eb2e30;fill-opacity:1;stroke-width:0.0799999"
             d="m 36.279954,23.913786 c -0.70859,0.63532 -1.91709,2.10055 -1.96474,10.10791 0.002,3.165442 0.18166,6.327755 0.21756,9.492444 0.0128,0.337462 1.52156,0.523101 1.15001,1.242288 -1.19376,0.985542 -2.98004,0.165969 -4.45796,-2.5e-4 -0.81233,0.630283 -1.30367,3.095879 -1.4008,4.114741 1.5295,0.727959 3.32377,1.193513 4.98832,0.660941 1.75835,-0.61651 2.23019,-2.756906 3.02927,-4.262272 0.88828,-1.177971 5.80509,-0.796166 6.45852,-0.467671 l 3.81683,-2.516643 c 0.15056,-1.361764 0.40701,-4.38361 0.28671,-7.139734 0.009,-1.273056 0.67734,-2.569863 0.93632,-3.787064 0.2881,-1.274581 -0.92695,-5.083754 -3.30921,-6.75791 -2.6664,-1.953608 -7.88838,-2.042087 -9.75083,-0.68678 z m 12.29641,20.165177 -2.98328,1.966805 c 1.27547,1.718792 1.82609,2.764289 2.95124,4.162537 1.02934,-0.205284 2.95695,-1.355219 2.84944,-3.47369 -0.70651,-1.57139 -2.01915,-2.03832 -2.8174,-2.655652 z"
             sodipodi:nodetypes="cccsccccccccccccccc" /><path
             id="path537"
             style="display:inline;fill:#f1f73f;fill-opacity:1;stroke-width:0.0799999"
             d="m 32.907444,30.639274 c -3.76368,-1.001558 -3.90057,2.796889 -3.87591,5.776977 0.0247,2.980087 -0.4616,7.220599 3.86593,6.257302 z"
             sodipodi:nodetypes="czcc" /><path
             style="display:inline;fill:#eb2e30;fill-opacity:1;stroke-width:0.0799999"
             d="m 24.845192,73.845433 c 0.165502,-0.08907 0.408726,-0.174082 0.703623,-0.242834 1.049276,-0.244629 2.752744,-0.283414 3.937001,0.433221 0.271235,7.180755 0.317729,10.28326 -1.290941,10.307525 -4.493516,0.06778 -3.274185,-7.151417 -3.349683,-10.497912 z"
             id="path538"
             sodipodi:nodetypes="cscsc"
             clip-path="url(#clipPath11)"
             transform="translate(3.827391,-41.077162)" /><path
             id="path539"
             style="display:inline;fill:#f1f73f;fill-opacity:1;stroke-width:0.0799999"
             d="m 40.158272,22.999113 c -1.605557,0.005 -3.063495,0.321727 -3.878316,0.914673 -0.354368,0.317725 -0.833713,0.842975 -1.230416,2.290299 -1.880767,15.577729 10.52724,20.082424 13.446725,8.085812 4.64e-4,0.004 0.0011,0.0084 0.0016,0.0124 0.193039,-0.996987 0.640371,-1.994824 0.842326,-2.944006 0.288099,-1.27458 -0.927101,-5.083573 -3.309359,-6.757727 -1.499848,-1.098904 -3.808221,-1.607835 -5.87251,-1.601453 z" /></g></g><g
         id="g547"
         transform="matrix(0.68871977,0,0,0.68871977,-415.59726,-31.363813)"
         style="display:inline"><circle
           style="fill:#f9f9f9;fill-opacity:1;stroke:#000000;stroke-width:0.385958"
           id="circle540"
           cx="212.15387"
           cy="75.102921"
           r="3.7124999" /><circle
           style="fill:#0b0b0b;fill-opacity:1;stroke-width:0.0799999"
           id="circle541"
           cx="212.25484"
           cy="75.102921"
           r="2.9033651" /><circle
           style="fill:#f9f9f9;fill-opacity:1;stroke:#000000;stroke-width:0.385958"
           id="circle542"
           cx="205.32982"
           cy="75.249519"
           r="3.7124999" /><circle
           style="fill:#0b0b0b;fill-opacity:1;stroke-width:0.0799999"
           id="circle543"
           cx="205.31076"
           cy="75.182205"
           r="2.9033651" /><circle
           style="fill:#f9f9f9;fill-opacity:1;stroke-width:0.0633563"
           id="circle544"
           cx="206.93472"
           cy="74.446121"
           r="0.66634244" /><circle
           style="fill:#f9f9f9;fill-opacity:1;stroke-width:0.0595155"
           id="circle545"
           cx="213.97212"
           cy="74.393784"
           r="0.62594706" /><path
           style="fill:none;fill-opacity:1;stroke:#000000;stroke-width:1.24923;stroke-linecap:round"
           d="m 202.76493,69.997594 3.71418,-0.06611"
           id="path545"
           sodipodi:nodetypes="cc" /><path
           style="fill:none;fill-opacity:1;stroke:#000000;stroke-width:1.24923;stroke-linecap:round"
           d="m 212.56467,69.946225 -2.90515,0.0062"
           id="path546"
           sodipodi:nodetypes="cc" /><path
           style="fill:none;fill-opacity:1;stroke:#000000;stroke-width:1.07431;stroke-linecap:round"
           d="m 210.78567,80.619146 c -0.0417,1.617432 -5.072,1.646704 -5.18953,-0.128666 m 2.57656,1.67058 0.004,1.078928"
           id="path547"
           sodipodi:nodetypes="cccc" /></g></g></g></svg>
