<?xml version="1.0" encoding="UTF-8" standalone="no"?>
<!-- Created with Inkscape (http://www.inkscape.org/) -->

<svg
   width="45.15556mm"
   height="45.155563mm"
   viewBox="0 0 45.15556 45.155564"
   version="1.1"
   id="svg1"
   xml:space="preserve"
   inkscape:version="1.3.2 (091e20e, 2023-11-25, custom)"
   sodipodi:docname="Amongus.svg"
   xmlns:inkscape="http://www.inkscape.org/namespaces/inkscape"
   xmlns:sodipodi="http://sodipodi.sourceforge.net/DTD/sodipodi-0.dtd"
   xmlns="http://www.w3.org/2000/svg"
   xmlns:svg="http://www.w3.org/2000/svg"><sodipodi:namedview
     id="namedview1"
     pagecolor="#ffffff"
     bordercolor="#000000"
     borderopacity="0.25"
     inkscape:showpageshadow="2"
     inkscape:pageopacity="0.0"
     inkscape:pagecheckerboard="0"
     inkscape:deskcolor="#d1d1d1"
     inkscape:document-units="mm"
     inkscape:zoom="0.32069453"
     inkscape:cx="528.54035"
     inkscape:cy="579.99119"
     inkscape:window-width="1920"
     inkscape:window-height="965"
     inkscape:window-x="-8"
     inkscape:window-y="-8"
     inkscape:window-maximized="1"
     inkscape:current-layer="layer3" /><defs
     id="defs1"><clipPath
       clipPathUnits="userSpaceOnUse"
       id="clipPath11"><path
         id="path12"
         style="display:inline;opacity:1;fill:#000080;stroke-width:0.0799997"
         d="m 29.080047,71.716437 c -3.763679,-1.001559 -3.900566,2.796889 -3.875901,5.776976 0.02466,2.980087 -0.461604,7.220598 3.865926,6.257303 z"
         sodipodi:nodetypes="czcc" /></clipPath><clipPath
       clipPathUnits="userSpaceOnUse"
       id="clipPath14"><path
         id="path15"
         style="fill:#000080;stroke-width:0.0799997"
         d="m 30.382813,71.566405 c -0.07269,4.009948 -0.20225,6.773196 0.06641,16.720704 0.07977,2.519875 4.731062,3.049957 4.785156,0.96289 l 0.05859,-3.136718 c 0.01622,-0.876638 0.557332,-1.977456 1.383292,-1.683263 2.4569,0.875099 4.957437,0.194593 5.139672,0.188336 -0.642586,0.634402 -1.218692,1.065001 -2.188171,1.326062 -0.03775,1.484572 -0.0066,3.56275 1.620277,3.55754 3.754816,-0.01201 3.213976,-10.058466 2.98047,-13.601562 -7.93e-4,-0.0026 -0.0013,-0.0052 -0.0021,-0.0078 -0.09605,-1.558441 0.534778,-2.565652 0.812501,-3.539062 0.687165,-2.408515 -1.631747,-8.442764 -8.932614,-8.442764 -1.686597,0 -5.581912,-0.1602 -5.723583,7.655637 z"
         sodipodi:nodetypes="scccsccsccsss" /></clipPath></defs><g
     inkscape:groupmode="layer"
     id="layer3"
     inkscape:label="Layer 3"
     style="display:inline;opacity:1"
     transform="translate(-151.65455,-198.64634)"><g
       id="g534"
       transform="translate(313.74679,193.12405)"
       inkscape:export-filename="SK_00\botskin-default-000_idle.png"
       inkscape:export-xdpi="96"
       inkscape:export-ydpi="96"><rect
         style="fill:none;fill-opacity:1;stroke:none;stroke-width:1.29083;stroke-linecap:round"
         id="rect520"
         width="45.155556"
         height="45.155556"
         x="-116.93668"
         y="5.5222869"
         inkscape:export-filename="SK_00\botskin-default-000_idle.svg"
         inkscape:export-xdpi="96"
         inkscape:export-ydpi="96" /><g
         id="g526"
         transform="translate(-0.66634615,-0.47596153)"><g
           id="g525"
           transform="translate(-175.01327,-50.067225)"><path
             id="path520"
             style="display:inline;opacity:1;fill:#0b0b0b;fill-opacity:1;stroke-width:0.0799999"
             d="m 74.416587,70.39471 0.166587,15.040383 c -5.75948,0.665908 -6.291818,-1.53309 -6.275089,-7.707484 0.01635,-6.036279 0.791445,-7.950893 6.108502,-7.332899 z"
             sodipodi:nodetypes="ccsc"
             inkscape:export-filename="V1-V2.png"
             inkscape:export-xdpi="300"
             inkscape:export-ydpi="300" /><path
             id="path521"
             style="display:inline;opacity:1;fill:#0b0b0b;fill-opacity:1;stroke-width:0.0799999"
             d="m 80.304639,62.680891 c -5.159811,0.116635 -6.635572,2.477072 -7.070709,8.992986 -0.269977,4.042739 -0.205165,6.88795 0.06408,16.854752 0.141456,4.468437 7.88543,5.233654 7.996411,0.95188 l 0.04649,-3.289883 c 0.43968,0.191684 0.986025,0.128498 1.472792,0.108168 l 0.128157,1.944584 c 0.141207,4.573678 5.637303,3.966975 6.785116,-1.352372 1.065627,-3.570281 0.803736,-7.24999 0.557072,-10.906828 -0.109124,-1.770509 2.059751,-3.849144 0.459719,-7.34929 -1.11335,-2.435507 -3.2754,-6.11593 -10.439128,-5.953997 z"
             sodipodi:nodetypes="ssccccccsss" /><path
             id="path522"
             style="display:inline;opacity:1;fill:#f1f73f;fill-opacity:1;stroke-width:0.0799999"
             d="m 74.83762,71.756791 c -0.07269,4.009948 -0.20225,6.773194 0.06641,16.720703 0.07977,2.519876 4.73106,3.049958 4.785156,0.962891 l 0.05859,-3.136719 c 0.01622,-0.876638 0.557333,-1.977455 1.383293,-1.683264 2.456899,0.875101 4.957438,0.194594 5.139671,0.188338 -0.642586,0.634402 -1.218692,1.064999 -2.188169,1.32606 -0.03775,1.484572 -0.0066,3.562751 1.620277,3.557542 3.754814,-0.01202 3.213975,-10.058468 2.980469,-13.601562 -6.73e-4,-0.0026 -0.0013,-0.0052 -0.002,-0.0078 -0.09605,-1.558443 0.534779,-2.565653 0.8125,-3.539062 0.396322,-1.389107 -0.207293,-3.984272 -2.189914,-5.932242 -1.454965,-1.429535 -3.652593,-2.510524 -6.742699,-2.510524 -1.686596,0 -5.581911,-0.160199 -5.723584,7.655639 z"
             sodipodi:nodetypes="scccsccsccssss" /><path
             id="path523"
             style="display:inline;opacity:1;fill:#f1f73f;fill-opacity:1;stroke-width:0.0799999"
             d="m 73.534856,71.906821 c -3.76368,-1.001558 -3.900567,2.796889 -3.875902,5.776977 0.02466,2.980087 -0.461604,7.220599 3.865926,6.257302 z"
             sodipodi:nodetypes="czcc" /><path
             style="display:inline;opacity:1;fill:#eb2e30;fill-opacity:1;stroke-width:0.0799999"
             d="m 24.845192,73.845433 c 0.165502,-0.08907 0.408726,-0.174082 0.703623,-0.242834 1.049276,-0.244629 2.752744,-0.283414 3.937001,0.433221 0.271235,7.180755 0.317729,10.28326 -1.290941,10.307525 -4.493516,0.06778 -3.274185,-7.151417 -3.349683,-10.497912 z"
             id="path524"
             sodipodi:nodetypes="cscsc"
             clip-path="url(#clipPath11)"
             transform="translate(44.454807,0.19038462)" /><path
             style="display:inline;opacity:1;fill:#eb2e30;fill-opacity:1;stroke-width:0.0799999"
             d="m 29.604808,72.86971 c -0.0476,4.426442 0.02314,12.098607 -0.0452,14.163941 -0.07733,2.336964 2.103244,4.237128 3.281742,4.160579 1.140896,-0.07411 3.188943,0 3.236539,-1.189905 0.0476,-1.189903 0.05337,-3.737989 0.196157,-4.261546 0.142788,-0.523558 2.564419,-0.212492 2.564419,-0.212492 l 0.475962,3.712501 2.427404,0.999519 2.522595,-2.332212 c 0.946997,-4.555715 0.547114,-8.621127 0.02363,-13.179173 -2.91952,11.996757 -14.908274,7.529819 -13.027168,-8.048342 -1.177267,2.118042 -1.55371,3.690313 -1.65608,6.18713 z"
             id="path525"
             sodipodi:nodetypes="sssssccccccs"
             clip-path="url(#clipPath14)"
             transform="translate(44.454807,0.19038462)" /></g></g><g
         id="g533"
         transform="matrix(0.68871977,0,0,0.68871977,-235.43918,-31.779178)"
         style="display:inline"><circle
           style="fill:#f9f9f9;fill-opacity:1;stroke:#000000;stroke-width:0.385958"
           id="circle526"
           cx="212.15387"
           cy="75.102921"
           r="3.7124999" /><circle
           style="fill:#0b0b0b;fill-opacity:1;stroke-width:0.0799999"
           id="circle527"
           cx="212.25484"
           cy="75.102921"
           r="2.9033651" /><circle
           style="fill:#f9f9f9;fill-opacity:1;stroke:#000000;stroke-width:0.385958"
           id="circle528"
           cx="205.32982"
           cy="75.249519"
           r="3.7124999" /><circle
           style="fill:#0b0b0b;fill-opacity:1;stroke-width:0.0799999"
           id="circle529"
           cx="205.31076"
           cy="75.182205"
           r="2.9033651" /><circle
           style="fill:#f9f9f9;fill-opacity:1;stroke-width:0.0633563"
           id="circle530"
           cx="206.93472"
           cy="74.446121"
           r="0.66634244" /><circle
           style="fill:#f9f9f9;fill-opacity:1;stroke-width:0.0595155"
           id="circle531"
           cx="213.97212"
           cy="74.393784"
           r="0.62594706" /><path
           style="fill:none;fill-opacity:1;stroke:#000000;stroke-width:1.24923;stroke-linecap:round"
           d="m 202.76493,69.997594 3.71418,-0.06611"
           id="path531"
           sodipodi:nodetypes="cc" /><path
           style="fill:none;fill-opacity:1;stroke:#000000;stroke-width:1.24923;stroke-linecap:round"
           d="m 212.56467,69.946225 -2.90515,0.0062"
           id="path532"
           sodipodi:nodetypes="cc" /><path
           style="fill:none;fill-opacity:1;stroke:#000000;stroke-width:1.07431;stroke-linecap:round"
           d="m 210.78567,80.619146 c -0.0417,1.617432 -5.072,1.646704 -5.18953,-0.128666 m 2.57656,1.67058 0.004,1.078928"
           id="path533"
           sodipodi:nodetypes="cccc" /></g></g><g
       id="g590"
       transform="translate(313.74681,193.12405)"
       inkscape:export-filename="SK_00\botskin-default-003.png"
       inkscape:export-xdpi="96"
       inkscape:export-ydpi="96"><rect
         style="fill:none;fill-opacity:1;stroke:none;stroke-width:1.29083;stroke-linecap:round"
         id="rect576"
         width="45.155556"
         height="45.155556"
         x="-162.09227"
         y="5.5222869"
         inkscape:export-filename="SK_00\botskin-default-003.png"
         inkscape:export-xdpi="96"
         inkscape:export-ydpi="96" /><g
         id="g582"
         transform="translate(-311.29251,-8.78643)"><g
           id="g581"><path
             id="path576"
             style="display:inline;fill:#0b0b0b;fill-opacity:1;stroke-width:0.0799999"
             d="m 164.4932,28.613173 0.16658,15.040383 c -5.75948,0.665908 -6.29181,-1.53309 -6.27508,-7.707484 0.0164,-6.036279 0.79144,-7.950893 6.1085,-7.332899 z"
             sodipodi:nodetypes="ccsc" /><path
             id="path577"
             style="display:inline;fill:#0b0b0b;fill-opacity:1;stroke-width:0.0799999"
             d="m 163.51247,29.89234 c -0.23672,3.544649 -0.19417,13.042073 -0.19417,13.042073 -0.14809,-0.07405 2.38418,4.923663 1.76325,5.976033 l 2.57134,0.124841 c -0.40385,0.942505 -0.9865,1.840309 -0.66849,2.963279 l 5.3795,-0.142807 c -0.0389,0.605519 1.30649,-2.482363 1.70028,-3.090546 l 2.61824,-2.49e-4 c 0.3889,0.03417 0.72298,-0.255737 0.68849,-0.779588 l -0.11139,-4.108414 c 3.47075,-1.183826 4.17606,-6.218524 3.10107,-9.67432 -0.52689,-1.693811 2.32899,-3.781833 0.72896,-7.281979 -1.11335,-2.435507 -3.54464,-6.183241 -9.70637,-6.043957 -6.16174,0.139283 -7.43557,2.49972 -7.87071,9.015634 z"
             sodipodi:nodetypes="scccccccccsscs" /><path
             id="path578"
             style="display:inline;fill:#eb2e30;fill-opacity:1;stroke-width:0.0799999"
             d="m 166.49423,23.95306 c -0.7723,0.960686 -1.24139,2.869958 -1.45315,6.040975 -0.2195,3.286935 -0.18874,12.333415 -0.18758,12.68553 1.81155,4.262263 -1.16012,-2.739398 0.49764,1.156519 1.79791,0.966584 3.35848,2.397618 3.77238,4.775936 0.16091,0.616445 -0.11734,1.223617 -0.30334,1.806091 l 2.7249,-0.07235 c 0.4261,-0.854782 0.80673,-1.730244 1.3255,-2.535246 l -0.14211,-5.009513 c 2.91066,0.107373 5.38825,-0.153884 6.30298,-3.293339 0.39218,-1.515027 0.11807,-3.366942 -0.13281,-4.849316 -0.23627,-1.396045 3.59024,-6.242073 -1.73065,-10.533208 -3.17107,-2.557391 -9.14126,-2.07838 -10.67376,-0.172082 z m 9.23716,20.074227 -1.6769,0.03514 0.0915,3.171899 h 1.67224 z m -9.57616,1.86862 c 0.18307,0.507559 0.32878,1.026867 0.44442,1.553393 l 0.82889,0.04031 c -0.30759,-0.637246 -0.74135,-1.152389 -1.27331,-1.593701 z m 7.4383,5.113899 c 0.003,0.002 0.005,0.0037 0.008,0.0057 -0.002,-0.0031 3.1e-4,-4.98e-4 -0.002,-0.0036 -10e-4,-0.0014 -0.005,-6.21e-4 -0.006,-0.0021 z"
             sodipodi:nodetypes="sscccccccssssccccccccccccc" /><path
             id="path579"
             style="display:inline;fill:#f1f73f;fill-opacity:1;stroke-width:0.0799999"
             d="m 163.61147,30.125284 c -3.76368,-1.001558 -3.90057,2.796889 -3.87591,5.776977 0.0247,2.980087 -0.4616,7.220599 3.86593,6.257302 z"
             sodipodi:nodetypes="czcc" /><path
             style="display:inline;fill:#eb2e30;fill-opacity:1;stroke-width:0.0799999"
             d="m 24.845192,73.845433 c 0.165502,-0.08907 0.408726,-0.174082 0.703623,-0.242834 1.049276,-0.244629 2.752744,-0.283414 3.937001,0.433221 0.271235,7.180755 0.317729,10.28326 -1.290941,10.307525 -4.493516,0.06778 -3.274185,-7.151417 -3.349683,-10.497912 z"
             id="path580"
             sodipodi:nodetypes="cscsc"
             clip-path="url(#clipPath11)"
             transform="translate(134.53142,-41.591153)" /><path
             id="path581"
             style="display:inline;fill:#f1f73f;fill-opacity:1;stroke-width:0.0799999"
             d="m 171.21642,22.365043 c -2.08049,0.03837 -3.95594,0.634869 -4.72219,1.588017 -0.11065,0.137647 -0.21327,0.300491 -0.31161,0.478007 -1.87424,15.570243 9.79719,22.221191 12.71602,10.227283 -0.23627,-1.396044 3.59024,-6.242077 -1.73064,-10.533208 -1.58554,-1.278694 -3.87109,-1.798465 -5.95158,-1.760099 z m 7.68222,12.293307 c 0.0153,0.133345 0.0368,0.268741 0.0631,0.40566 -0.0216,-0.133589 -0.0413,-0.277165 -0.0631,-0.40566 z" /></g></g><g
         id="g589"
         transform="matrix(0.68871977,0,0,0.68871977,-280.71054,-31.391227)"
         style="display:inline"><circle
           style="fill:#f9f9f9;fill-opacity:1;stroke:#000000;stroke-width:0.385958"
           id="circle582"
           cx="212.15387"
           cy="75.102921"
           r="3.7124999" /><circle
           style="fill:#0b0b0b;fill-opacity:1;stroke-width:0.0799999"
           id="circle583"
           cx="212.25484"
           cy="75.102921"
           r="2.9033651" /><circle
           style="fill:#f9f9f9;fill-opacity:1;stroke:#000000;stroke-width:0.385958"
           id="circle584"
           cx="205.32982"
           cy="75.249519"
           r="3.7124999" /><circle
           style="fill:#0b0b0b;fill-opacity:1;stroke-width:0.0799999"
           id="circle585"
           cx="205.31076"
           cy="75.182205"
           r="2.9033651" /><circle
           style="fill:#f9f9f9;fill-opacity:1;stroke-width:0.0633563"
           id="circle586"
           cx="206.93472"
           cy="74.446121"
           r="0.66634244" /><circle
           style="fill:#f9f9f9;fill-opacity:1;stroke-width:0.0595155"
           id="circle587"
           cx="213.97212"
           cy="74.393784"
           r="0.62594706" /><path
           style="fill:none;fill-opacity:1;stroke:#000000;stroke-width:1.24923;stroke-linecap:round"
           d="m 202.76493,69.997594 3.71418,-0.06611"
           id="path587"
           sodipodi:nodetypes="cc" /><path
           style="fill:none;fill-opacity:1;stroke:#000000;stroke-width:1.24923;stroke-linecap:round"
           d="m 212.56467,69.946225 -2.90515,0.0062"
           id="path588"
           sodipodi:nodetypes="cc" /><path
           style="fill:none;fill-opacity:1;stroke:#000000;stroke-width:1.07431;stroke-linecap:round"
           d="m 210.78567,80.619146 c -0.0417,1.617432 -5.072,1.646704 -5.18953,-0.128666 m 2.57656,1.67058 0.004,1.078928"
           id="path589"
           sodipodi:nodetypes="cccc" /></g></g></g></svg>
