<?xml version="1.0" encoding="UTF-8" standalone="no"?>
<!-- Created with Inkscape (http://www.inkscape.org/) -->

<svg
   width="45.155552mm"
   height="45.155563mm"
   viewBox="0 0 45.155552 45.155564"
   version="1.1"
   id="svg1"
   xml:space="preserve"
   inkscape:version="1.3.2 (091e20e, 2023-11-25, custom)"
   sodipodi:docname="Amongus.svg"
   xmlns:inkscape="http://www.inkscape.org/namespaces/inkscape"
   xmlns:sodipodi="http://sodipodi.sourceforge.net/DTD/sodipodi-0.dtd"
   xmlns="http://www.w3.org/2000/svg"
   xmlns:svg="http://www.w3.org/2000/svg"><sodipodi:namedview
     id="namedview1"
     pagecolor="#ffffff"
     bordercolor="#000000"
     borderopacity="0.25"
     inkscape:showpageshadow="2"
     inkscape:pageopacity="0.0"
     inkscape:pagecheckerboard="0"
     inkscape:deskcolor="#d1d1d1"
     inkscape:document-units="mm"
     inkscape:zoom="0.32069453"
     inkscape:cx="528.54035"
     inkscape:cy="579.99119"
     inkscape:window-width="1920"
     inkscape:window-height="965"
     inkscape:window-x="-8"
     inkscape:window-y="-8"
     inkscape:window-maximized="1"
     inkscape:current-layer="layer3" /><defs
     id="defs1"><clipPath
       clipPathUnits="userSpaceOnUse"
       id="clipPath11"><path
         id="path12"
         style="display:inline;opacity:1;fill:#000080;stroke-width:0.0799997"
         d="m 29.080047,71.716437 c -3.763679,-1.001559 -3.900566,2.796889 -3.875901,5.776976 0.02466,2.980087 -0.461604,7.220598 3.865926,6.257303 z"
         sodipodi:nodetypes="czcc" /></clipPath></defs><g
     inkscape:groupmode="layer"
     id="layer3"
     inkscape:label="Layer 3"
     style="display:inline;opacity:1"
     transform="translate(-61.343445,-198.64634)"><g
       id="g562"
       transform="translate(313.74687,193.12405)"
       inkscape:export-filename="SK_00\botskin-default-001.png"
       inkscape:export-xdpi="96"
       inkscape:export-ydpi="96"><rect
         style="fill:none;fill-opacity:1;stroke:none;stroke-width:1.29083;stroke-linecap:round"
         id="rect548"
         width="45.155556"
         height="45.155556"
         x="-252.40343"
         y="5.5222869"
         inkscape:export-filename="SK_00\botskin-default-001.png"
         inkscape:export-xdpi="96"
         inkscape:export-ydpi="96" /><g
         id="g554"
         transform="translate(-313.02216,-10.497089)"><g
           id="g553"><path
             id="path548"
             style="display:inline;fill:#0b0b0b;fill-opacity:1;stroke-width:0.0799999"
             d="m 76.054554,29.698317 0.16658,15.040383 c -5.75948,0.665908 -6.29181,-1.53309 -6.27508,-7.707484 0.0164,-6.036279 0.79144,-7.950893 6.1085,-7.332899 z"
             sodipodi:nodetypes="ccsc" /><path
             id="path549"
             style="display:inline;fill:#0b0b0b;fill-opacity:1;stroke-width:0.0799999"
             d="m 75.073824,30.977484 c -0.23672,3.544649 -0.0814,5.764812 0.10873,13.075729 0.0267,1.027321 -0.37553,1.577849 -1.62127,1.964425 -0.37582,0.919623 -0.82053,4.632537 0.20106,4.852851 4.2819,0.923424 7.83377,0.184184 8.66363,-0.928143 -0.0389,0.605519 -0.32799,1.396143 0.0896,2.001662 1.28657,0.280081 5.37336,0.356559 6.85998,-0.223856 0.7502,-1.736184 0.18913,-3.472369 0.28369,-5.208554 1.20172,-0.953968 2.67015,-1.866905 2.2916,-3.063993 0.40847,-2.788226 0.16147,-5.338043 -0.0289,-8.159819 -0.11938,-1.769847 2.05975,-3.849144 0.45972,-7.34929 -1.11335,-2.435507 -3.2754,-6.11593 -9.43713,-5.976647 -6.16174,0.139284 -7.43557,2.499721 -7.87071,9.015635 z"
             sodipodi:nodetypes="sscscccccsscs" /><path
             id="path550"
             style="display:inline;fill:#eb2e30;fill-opacity:1;stroke-width:0.0799999"
             d="m 82.116434,23.754622 c -1.71593,0.03683 -3.2331,0.475556 -3.89175,1.393714 -0.63243,0.881616 -1.11383,2.79545 -1.32447,5.949507 -0.58292,8.728918 -0.0482,11.525102 -0.17621,13.530441 l 2.17247,0.02584 c 0.77206,0.430465 0.53653,0.860929 -0.0155,1.291394 l -2.47427,-0.02997 c -0.24406,0.482181 -0.63171,0.873474 -1.20354,1.170471 -0.13954,0.671808 -0.2771,1.355019 -0.21291,2.042769 2.01105,0.642669 4.26985,0.464045 5.96863,-0.283187 2.47975,-1.238397 1.67419,-2.556614 2.11718,-4.696871 0.42475,0.0022 0.89347,-0.215388 1.26194,0.06821 l 0.1757,1.111044 h 4.21266 c 0.70535,-0.582725 1.53255,-1.06834 1.60352,-1.848466 0.21893,-2.406413 0.40959,-4.680446 0.30386,-7.160804 -0.11326,-1.679065 0.61547,-3.027586 0.8816,-3.979085 0.38785,-1.38663 -1.03211,-5.242793 -3.19722,-6.898287 -1.46082,-1.116977 -3.99549,-1.734067 -6.20169,-1.68672 z m 2.59053,23.067039 c -0.28446,0.886214 -0.29253,1.645905 -1.20135,2.138462 0.12761,0.385643 -0.17377,1.060514 0.13556,1.487724 0.85223,0.389582 3.3522,0.193856 4.31226,0.0666 0.0738,-0.88162 -0.13329,-2.122189 -0.0693,-3.680885 z"
             sodipodi:nodetypes="ssscccccccccccscssscccccc" /><path
             id="path551"
             style="display:inline;fill:#f1f73f;fill-opacity:1;stroke-width:0.0799999"
             d="m 75.172824,31.210428 c -3.76368,-1.001558 -3.90057,2.796889 -3.87591,5.776977 0.0247,2.980087 -0.4616,7.220599 3.86593,6.257302 z"
             sodipodi:nodetypes="czcc" /><path
             style="display:inline;fill:#eb2e30;fill-opacity:1;stroke-width:0.0799999"
             d="m 24.845192,73.845433 c 0.165502,-0.08907 0.408726,-0.174082 0.703623,-0.242834 1.049276,-0.244629 2.752744,-0.283414 3.937001,0.433221 0.271235,7.180755 0.317729,10.28326 -1.290941,10.307525 -4.493516,0.06778 -3.274185,-7.151417 -3.349683,-10.497912 z"
             id="path552"
             sodipodi:nodetypes="cscsc"
             clip-path="url(#clipPath11)"
             transform="translate(46.092774,-40.506009)" /><path
             id="path553"
             style="display:inline;fill:#f1f73f;fill-opacity:1;stroke-width:0.0799999"
             d="m 82.116435,23.754622 c -1.715929,0.03683 -3.233103,0.475557 -3.891752,1.393714 -0.211681,0.295086 -0.404392,0.716919 -0.577743,1.251086 -1.864471,15.558978 10.068933,21.909274 12.986804,9.919291 -0.11326,-1.679063 0.615471,-3.027587 0.8816,-3.979085 0.38785,-1.386629 -1.032113,-5.242795 -3.197221,-6.898287 -1.460818,-1.116976 -3.99549,-1.734066 -6.201688,-1.686719 z" /></g></g><g
         id="g561"
         transform="matrix(0.68871977,0,0,0.68871977,-370.64135,-31.525813)"
         style="display:inline"><circle
           style="fill:#f9f9f9;fill-opacity:1;stroke:#000000;stroke-width:0.385958"
           id="circle554"
           cx="212.15387"
           cy="75.102921"
           r="3.7124999" /><circle
           style="fill:#0b0b0b;fill-opacity:1;stroke-width:0.0799999"
           id="circle555"
           cx="212.25484"
           cy="75.102921"
           r="2.9033651" /><circle
           style="fill:#f9f9f9;fill-opacity:1;stroke:#000000;stroke-width:0.385958"
           id="circle556"
           cx="205.32982"
           cy="75.249519"
           r="3.7124999" /><circle
           style="fill:#0b0b0b;fill-opacity:1;stroke-width:0.0799999"
           id="circle557"
           cx="205.31076"
           cy="75.182205"
           r="2.9033651" /><circle
           style="fill:#f9f9f9;fill-opacity:1;stroke-width:0.0633563"
           id="circle558"
           cx="206.93472"
           cy="74.446121"
           r="0.66634244" /><circle
           style="fill:#f9f9f9;fill-opacity:1;stroke-width:0.0595155"
           id="circle559"
           cx="213.97212"
           cy="74.393784"
           r="0.62594706" /><path
           style="fill:none;fill-opacity:1;stroke:#000000;stroke-width:1.24923;stroke-linecap:round"
           d="m 202.76493,69.997594 3.71418,-0.06611"
           id="path559"
           sodipodi:nodetypes="cc" /><path
           style="fill:none;fill-opacity:1;stroke:#000000;stroke-width:1.24923;stroke-linecap:round"
           d="m 212.56467,69.946225 -2.90515,0.0062"
           id="path560"
           sodipodi:nodetypes="cc" /><path
           style="fill:none;fill-opacity:1;stroke:#000000;stroke-width:1.07431;stroke-linecap:round"
           d="m 210.78567,80.619146 c -0.0417,1.617432 -5.072,1.646704 -5.18953,-0.128666 m 2.57656,1.67058 0.004,1.078928"
           id="path561"
           sodipodi:nodetypes="cccc" /></g></g><g
       id="g576"
       transform="translate(313.74687,193.12405)"
       inkscape:export-filename="SK_00\botskin-default-002.png"
       inkscape:export-xdpi="96"
       inkscape:export-ydpi="96"><rect
         style="fill:none;fill-opacity:1;stroke:none;stroke-width:1.29083;stroke-linecap:round"
         id="rect562"
         width="45.155556"
         height="45.155556"
         x="-207.24788"
         y="5.5222869"
         inkscape:export-filename="SK_00\botskin-default-002.png"
         inkscape:export-xdpi="96"
         inkscape:export-ydpi="96" /><g
         id="g568"
         transform="translate(-310.13148,-8.3933891)"><g
           id="g567"><path
             id="path562"
             style="display:inline;fill:#0b0b0b;fill-opacity:1;stroke-width:0.0799999"
             d="m 118.59518,27.813605 0.16658,15.040383 c -5.75948,0.665908 -6.29181,-1.53309 -6.27508,-7.707484 0.0164,-6.036279 0.79144,-7.950893 6.1085,-7.332899 z"
             sodipodi:nodetypes="ccsc" /><path
             id="path563"
             style="display:inline;fill:#0b0b0b;fill-opacity:1;stroke-width:0.0799999"
             d="m 117.61445,29.092772 c -0.23672,3.544649 -0.19417,13.042073 -0.19417,13.042073 -0.14809,-0.07405 -2.61581,2.594834 -3.3377,3.243337 1.18454,2.237347 3.64337,4.445649 5.43527,4.594797 2.75651,-0.340391 3.37101,-2.543655 4.4243,-4.176144 l 3.66604,-0.119009 c -0.0389,0.605519 6.72322,5.054862 7.14081,5.660381 1.53971,0.491027 4.22092,-2.589487 4.23485,-4.397145 0.47226,-1.092951 -6.24904,-5.320717 -6.30978,-5.512791 1.87402,-1.322672 2.58902,-4.593268 1.7885,-8.025197 -0.40295,-1.727495 2.05975,-3.849144 0.45972,-7.34929 -1.11335,-2.435507 -3.2754,-6.11593 -9.43713,-5.976646 -6.16174,0.139283 -7.43557,2.49972 -7.87071,9.015634 z"
             sodipodi:nodetypes="sccccccccsscs" /><path
             id="path564"
             style="display:inline;fill:#eb2e30;fill-opacity:1;stroke-width:0.0799999"
             d="m 125.42335,21.706685 c -2.04652,0.01472 -3.94539,0.562914 -4.72219,1.529623 -0.73953,0.920308 -1.21242,2.803476 -1.42369,5.967077 -0.22138,3.314912 -0.19207,12.776934 -0.19172,12.887586 1.30544,1.090439 2.40643,2.00575 3.95221,2.660819 1.19323,-0.949024 3.08291,-0.691399 4.51497,-0.737939 2.55554,1.885252 4.89091,3.78572 7.76335,5.597591 1.0991,-0.613398 1.77794,-1.991287 1.92598,-2.548682 -1.77975,-2.079212 -5.26444,-3.395393 -6.15621,-5.13302 -0.21883,-0.691349 0.0346,-1.445012 0.62684,-1.863452 0.98027,-0.691861 2.12733,-2.554294 1.42988,-5.544364 -0.4062,-1.741401 0.80255,-3.008727 1.1126,-4.013709 0.45966,-1.489893 -1.26995,-5.501806 -3.2241,-7.12928 -1.36724,-1.168176 -3.56141,-1.686973 -5.60792,-1.67225 z m -7.1422,21.396627 -1.98644,2.410189 c 0.80029,1.213235 1.79953,2.337938 3.25044,2.736267 1.33204,-0.251551 2.05665,-1.35312 2.7063,-2.434993 -1.57174,-0.718186 -2.73551,-1.67997 -3.9703,-2.711463 z" /><path
             id="path565"
             style="display:inline;fill:#f1f73f;fill-opacity:1;stroke-width:0.0799999"
             d="m 117.71345,29.325716 c -3.76368,-1.001558 -3.90057,2.796889 -3.87591,5.776977 0.0247,2.980087 -0.4616,7.220599 3.86593,6.257302 z"
             sodipodi:nodetypes="czcc" /><path
             style="display:inline;fill:#eb2e30;fill-opacity:1;stroke-width:0.0799999"
             d="m 24.845192,73.845433 c 0.165502,-0.08907 0.408726,-0.174082 0.703623,-0.242834 1.049276,-0.244629 2.752744,-0.283414 3.937001,0.433221 0.271235,7.180755 0.317729,10.28326 -1.290941,10.307525 -4.493516,0.06778 -3.274185,-7.151417 -3.349683,-10.497912 z"
             id="path566"
             sodipodi:nodetypes="cscsc"
             clip-path="url(#clipPath11)"
             transform="translate(88.633404,-42.39072)" /><path
             id="path567"
             style="display:inline;fill:#f1f73f;fill-opacity:1;stroke-width:0.0799999"
             d="m 125.42335,21.706685 c -2.04652,0.01472 -3.94539,0.562915 -4.72219,1.529623 -0.34889,0.434176 -0.63641,1.091861 -0.86713,1.987992 0.10434,-0.225524 0.21147,-0.444106 0.32453,-0.647506 -1.8811,15.578146 10.0647,21.941875 12.98422,9.94513 -0.4062,-1.741399 0.80254,-3.008728 1.11259,-4.013709 0.45966,-1.489891 -1.26994,-5.501808 -3.22409,-7.12928 -1.36724,-1.168175 -3.56142,-1.686973 -5.60793,-1.67225 z m 7.71943,12.815239 c 0.0267,0.232163 0.0728,0.470371 0.13177,0.713135 -0.0335,-0.231061 -0.0743,-0.466736 -0.13177,-0.713135 z" /></g></g><g
         id="g575"
         transform="matrix(0.68871977,0,0,0.68871977,-325.48112,-31.377415)"
         style="display:inline"><circle
           style="fill:#f9f9f9;fill-opacity:1;stroke:#000000;stroke-width:0.385958"
           id="circle568"
           cx="212.15387"
           cy="75.102921"
           r="3.7124999" /><circle
           style="fill:#0b0b0b;fill-opacity:1;stroke-width:0.0799999"
           id="circle569"
           cx="212.25484"
           cy="75.102921"
           r="2.9033651" /><circle
           style="fill:#f9f9f9;fill-opacity:1;stroke:#000000;stroke-width:0.385958"
           id="circle570"
           cx="205.32982"
           cy="75.249519"
           r="3.7124999" /><circle
           style="fill:#0b0b0b;fill-opacity:1;stroke-width:0.0799999"
           id="circle571"
           cx="205.31076"
           cy="75.182205"
           r="2.9033651" /><circle
           style="fill:#f9f9f9;fill-opacity:1;stroke-width:0.0633563"
           id="circle572"
           cx="206.93472"
           cy="74.446121"
           r="0.66634244" /><circle
           style="fill:#f9f9f9;fill-opacity:1;stroke-width:0.0595155"
           id="circle573"
           cx="213.97212"
           cy="74.393784"
           r="0.62594706" /><path
           style="fill:none;fill-opacity:1;stroke:#000000;stroke-width:1.24923;stroke-linecap:round"
           d="m 202.76493,69.997594 3.71418,-0.06611"
           id="path573"
           sodipodi:nodetypes="cc" /><path
           style="fill:none;fill-opacity:1;stroke:#000000;stroke-width:1.24923;stroke-linecap:round"
           d="m 212.56467,69.946225 -2.90515,0.0062"
           id="path574"
           sodipodi:nodetypes="cc" /><path
           style="fill:none;fill-opacity:1;stroke:#000000;stroke-width:1.07431;stroke-linecap:round"
           d="m 210.78567,80.619146 c -0.0417,1.617432 -5.072,1.646704 -5.18953,-0.128666 m 2.57656,1.67058 0.004,1.078928"
           id="path575"
           sodipodi:nodetypes="cccc" /></g></g></g></svg>
