<?xml version="1.0" encoding="UTF-8" standalone="no"?>
<!-- Created with Inkscape (http://www.inkscape.org/) -->

<svg
   width="45.155544mm"
   height="45.15556mm"
   viewBox="0 0 45.155544 45.15556"
   version="1.1"
   id="svg1"
   xml:space="preserve"
   inkscape:version="1.3.2 (091e20e, 2023-11-25, custom)"
   sodipodi:docname="Amongus.svg"
   xmlns:inkscape="http://www.inkscape.org/namespaces/inkscape"
   xmlns:sodipodi="http://sodipodi.sourceforge.net/DTD/sodipodi-0.dtd"
   xmlns="http://www.w3.org/2000/svg"
   xmlns:svg="http://www.w3.org/2000/svg"><sodipodi:namedview
     id="namedview1"
     pagecolor="#ffffff"
     bordercolor="#000000"
     borderopacity="0.25"
     inkscape:showpageshadow="2"
     inkscape:pageopacity="0.0"
     inkscape:pagecheckerboard="0"
     inkscape:deskcolor="#d1d1d1"
     inkscape:document-units="mm"
     inkscape:zoom="0.64138906"
     inkscape:cx="452.92322"
     inkscape:cy="979.1249"
     inkscape:window-width="1920"
     inkscape:window-height="965"
     inkscape:window-x="-8"
     inkscape:window-y="-8"
     inkscape:window-maximized="1"
     inkscape:current-layer="layer3" /><defs
     id="defs1"><clipPath
       clipPathUnits="userSpaceOnUse"
       id="clipPath11"><path
         id="path12"
         style="display:inline;opacity:1;fill:#000080;stroke-width:0.0799997"
         d="m 29.080047,71.716437 c -3.763679,-1.001559 -3.900566,2.796889 -3.875901,5.776976 0.02466,2.980087 -0.461604,7.220598 3.865926,6.257303 z"
         sodipodi:nodetypes="czcc" /></clipPath><clipPath
       clipPathUnits="userSpaceOnUse"
       id="clipPath14"><path
         id="path15"
         style="fill:#000080;stroke-width:0.0799997"
         d="m 30.382813,71.566405 c -0.07269,4.009948 -0.20225,6.773196 0.06641,16.720704 0.07977,2.519875 4.731062,3.049957 4.785156,0.96289 l 0.05859,-3.136718 c 0.01622,-0.876638 0.557332,-1.977456 1.383292,-1.683263 2.4569,0.875099 4.957437,0.194593 5.139672,0.188336 -0.642586,0.634402 -1.218692,1.065001 -2.188171,1.326062 -0.03775,1.484572 -0.0066,3.56275 1.620277,3.55754 3.754816,-0.01201 3.213976,-10.058466 2.98047,-13.601562 -7.93e-4,-0.0026 -0.0013,-0.0052 -0.0021,-0.0078 -0.09605,-1.558441 0.534778,-2.565652 0.812501,-3.539062 0.687165,-2.408515 -1.631747,-8.442764 -8.932614,-8.442764 -1.686597,0 -5.581912,-0.1602 -5.723583,7.655637 z"
         sodipodi:nodetypes="scccsccsccsss" /></clipPath></defs><g
     inkscape:groupmode="layer"
     id="layer3"
     inkscape:label="Layer 3"
     style="display:inline;opacity:1"
     transform="translate(-196.81011,-148.3848)"><g
       id="g448"
       transform="translate(313.74679,142.86251)"
       inkscape:export-filename="SK_00\botskin-default-000_idle.png"
       inkscape:export-xdpi="96"
       inkscape:export-ydpi="96"><rect
         style="fill:none;fill-opacity:1;stroke:none;stroke-width:1.29083;stroke-linecap:round"
         id="rect433"
         width="45.155556"
         height="45.155556"
         x="-116.93668"
         y="5.5222869"
         inkscape:export-filename="SK_00\botskin-default-000_idle.svg"
         inkscape:export-xdpi="96"
         inkscape:export-ydpi="96" /><g
         id="g440"
         transform="translate(-0.66634615,-0.47596153)"><g
           id="g439"
           transform="translate(-175.01327,-50.067225)"><path
             id="path434"
             style="display:inline;opacity:1;fill:#0b0b0b;fill-opacity:1;stroke-width:0.0799999"
             d="m 74.416587,70.39471 0.166587,15.040383 c -5.75948,0.665908 -6.291818,-1.53309 -6.275089,-7.707484 0.01635,-6.036279 0.791445,-7.950893 6.108502,-7.332899 z"
             sodipodi:nodetypes="ccsc"
             inkscape:export-filename="V1-V2.png"
             inkscape:export-xdpi="300"
             inkscape:export-ydpi="300" /><path
             id="path435"
             style="display:inline;opacity:1;fill:#0b0b0b;fill-opacity:1;stroke-width:0.0799999"
             d="m 80.304639,62.680891 c -5.159811,0.116635 -6.635572,2.477072 -7.070709,8.992986 -0.269977,4.042739 -0.205165,6.88795 0.06408,16.854752 0.141456,4.468437 7.88543,5.233654 7.996411,0.95188 l 0.04649,-3.289883 c 0.43968,0.191684 0.986025,0.128498 1.472792,0.108168 l 0.128157,1.944584 c 0.141207,4.573678 5.637303,3.966975 6.785116,-1.352372 1.065627,-3.570281 0.803736,-7.24999 0.557072,-10.906828 -0.109124,-1.770509 2.059751,-3.849144 0.459719,-7.34929 -1.11335,-2.435507 -3.2754,-6.11593 -10.439128,-5.953997 z"
             sodipodi:nodetypes="ssccccccsss" /><path
             id="path436"
             style="display:inline;opacity:1;fill:#50fcd4;fill-opacity:1;stroke-width:0.0799999"
             d="m 74.83762,71.756791 c -0.07269,4.009948 -0.20225,6.773194 0.06641,16.720703 0.07977,2.519876 4.73106,3.049958 4.785156,0.962891 l 0.05859,-3.136719 c 0.01622,-0.876638 0.557333,-1.977455 1.383293,-1.683264 2.456899,0.875101 4.957438,0.194594 5.139671,0.188338 -0.642586,0.634402 -1.218692,1.064999 -2.188169,1.32606 -0.03775,1.484572 -0.0066,3.562751 1.620277,3.557542 3.754814,-0.01202 3.213975,-10.058468 2.980469,-13.601562 -6.73e-4,-0.0026 -0.0013,-0.0052 -0.002,-0.0078 -0.09605,-1.558443 0.534779,-2.565653 0.8125,-3.539062 0.396322,-1.389107 -0.207293,-3.984272 -2.189914,-5.932242 -1.454965,-1.429535 -3.652593,-2.510524 -6.742699,-2.510524 -1.686596,0 -5.581911,-0.160199 -5.723584,7.655639 z"
             sodipodi:nodetypes="scccsccsccssss" /><path
             id="path437"
             style="display:inline;opacity:1;fill:#50fcd4;fill-opacity:1;stroke-width:0.0799999"
             d="m 73.534856,71.906821 c -3.76368,-1.001558 -3.900567,2.796889 -3.875902,5.776977 0.02466,2.980087 -0.461604,7.220599 3.865926,6.257302 z"
             sodipodi:nodetypes="czcc" /><path
             style="display:inline;opacity:1;fill:#34a6c1;fill-opacity:1;stroke-width:0.0799999"
             d="m 24.845192,73.845433 c 0.165502,-0.08907 0.408726,-0.174082 0.703623,-0.242834 1.049276,-0.244629 2.752744,-0.283414 3.937001,0.433221 0.271235,7.180755 0.317729,10.28326 -1.290941,10.307525 -4.493516,0.06778 -3.274185,-7.151417 -3.349683,-10.497912 z"
             id="path438"
             sodipodi:nodetypes="cscsc"
             clip-path="url(#clipPath11)"
             transform="translate(44.454807,0.19038462)" /><path
             style="display:inline;opacity:1;fill:#34a6c1;fill-opacity:1;stroke-width:0.0799999"
             d="m 29.604808,72.86971 c -0.0476,4.426442 0.02314,12.098607 -0.0452,14.163941 -0.07733,2.336964 2.103244,4.237128 3.281742,4.160579 1.140896,-0.07411 3.188943,0 3.236539,-1.189905 0.0476,-1.189903 0.05337,-3.737989 0.196157,-4.261546 0.142788,-0.523558 2.564419,-0.212492 2.564419,-0.212492 l 0.475962,3.712501 2.427404,0.999519 2.522595,-2.332212 c 0.946997,-4.555715 0.547114,-8.621127 0.02363,-13.179173 -2.91952,11.996757 -14.908274,7.529819 -13.027168,-8.048342 -1.177267,2.118042 -1.55371,3.690313 -1.65608,6.18713 z"
             id="path439"
             sodipodi:nodetypes="sssssccccccs"
             clip-path="url(#clipPath14)"
             transform="translate(44.454807,0.19038462)" /></g></g><g
         id="g447"
         transform="matrix(0.68871977,0,0,0.68871977,-235.43918,-31.779178)"
         style="display:inline"><circle
           style="fill:#f9f9f9;fill-opacity:1;stroke:#000000;stroke-width:0.385958"
           id="circle440"
           cx="212.15387"
           cy="75.102921"
           r="3.7124999" /><circle
           style="fill:#0b0b0b;fill-opacity:1;stroke-width:0.0799999"
           id="circle441"
           cx="212.25484"
           cy="75.102921"
           r="2.9033651" /><circle
           style="fill:#f9f9f9;fill-opacity:1;stroke:#000000;stroke-width:0.385958"
           id="circle442"
           cx="205.32982"
           cy="75.249519"
           r="3.7124999" /><circle
           style="fill:#0b0b0b;fill-opacity:1;stroke-width:0.0799999"
           id="circle443"
           cx="205.31076"
           cy="75.182205"
           r="2.9033651" /><circle
           style="fill:#f9f9f9;fill-opacity:1;stroke-width:0.0633563"
           id="circle444"
           cx="206.93472"
           cy="74.446121"
           r="0.66634244" /><circle
           style="fill:#f9f9f9;fill-opacity:1;stroke-width:0.0595155"
           id="circle445"
           cx="213.97212"
           cy="74.393784"
           r="0.62594706" /><path
           style="fill:none;fill-opacity:1;stroke:#000000;stroke-width:1.24923;stroke-linecap:round"
           d="m 202.76493,69.997594 3.71418,-0.06611"
           id="path445"
           sodipodi:nodetypes="cc" /><path
           style="fill:none;fill-opacity:1;stroke:#000000;stroke-width:1.24923;stroke-linecap:round"
           d="m 212.56467,69.946225 -2.90515,0.0062"
           id="path446"
           sodipodi:nodetypes="cc" /><path
           style="fill:none;fill-opacity:1;stroke:#000000;stroke-width:1.07431;stroke-linecap:round"
           d="m 210.78567,80.619146 c -0.0417,1.617432 -5.072,1.646704 -5.18953,-0.128666 m 2.57656,1.67058 0.004,1.078928"
           id="path447"
           sodipodi:nodetypes="cccc" /></g></g></g></svg>
