<?xml version="1.0" encoding="UTF-8" standalone="no"?>
<!-- Created with Inkscape (http://www.inkscape.org/) -->

<svg
   width="45.155556mm"
   height="45.155544mm"
   viewBox="0 0 45.155556 45.155544"
   version="1.1"
   id="svg1"
   xml:space="preserve"
   inkscape:version="1.3.2 (091e20e, 2023-11-25, custom)"
   sodipodi:docname="Amongus.svg"
   xmlns:inkscape="http://www.inkscape.org/namespaces/inkscape"
   xmlns:sodipodi="http://sodipodi.sourceforge.net/DTD/sodipodi-0.dtd"
   xmlns="http://www.w3.org/2000/svg"
   xmlns:svg="http://www.w3.org/2000/svg"><sodipodi:namedview
     id="namedview1"
     pagecolor="#ffffff"
     bordercolor="#000000"
     borderopacity="0.25"
     inkscape:showpageshadow="2"
     inkscape:pageopacity="0.0"
     inkscape:pagecheckerboard="0"
     inkscape:deskcolor="#d1d1d1"
     inkscape:document-units="mm"
     inkscape:zoom="1.2827781"
     inkscape:cx="415.89422"
     inkscape:cy="1023.5597"
     inkscape:window-width="1920"
     inkscape:window-height="965"
     inkscape:window-x="-8"
     inkscape:window-y="-8"
     inkscape:window-maximized="1"
     inkscape:current-layer="g624" /><defs
     id="defs1"><clipPath
       clipPathUnits="userSpaceOnUse"
       id="clipPath11"><path
         id="path12"
         style="display:inline;opacity:1;fill:#000080;stroke-width:0.0799997"
         d="m 29.080047,71.716437 c -3.763679,-1.001559 -3.900566,2.796889 -3.875901,5.776976 0.02466,2.980087 -0.461604,7.220598 3.865926,6.257303 z"
         sodipodi:nodetypes="czcc" /></clipPath><inkscape:path-effect
       effect="powerstroke"
       id="path-effect893-6-5"
       is_visible="true"
       lpeversion="1.3"
       scale_width="1"
       interpolator_type="CentripetalCatmullRom"
       interpolator_beta="0.2"
       start_linecap_type="zerowidth"
       end_linecap_type="zerowidth"
       offset_points="0.021794483,0.20001125 | 0.46476965,0.26508246 | 0.97825715,0.1227145"
       linejoin_type="round"
       miter_limit="4"
       not_jump="false"
       sort_points="true"
       message="&lt;b&gt;Ctrl + click&lt;/b&gt; on existing node and move it" /><inkscape:path-effect
       effect="bspline"
       id="path-effect895-3-21"
       is_visible="true"
       lpeversion="1.3"
       weight="33.333333"
       steps="2"
       helper_size="0"
       apply_no_weight="true"
       apply_with_weight="true"
       only_selected="false"
       uniform="false" /><inkscape:path-effect
       effect="simplify"
       id="path-effect899-3-93"
       is_visible="true"
       lpeversion="1.3"
       threshold="10.8696"
       steps="1"
       smooth_angles="360"
       helper_size="0"
       simplify_individual_paths="false"
       simplify_just_coalesce="false" /><inkscape:path-effect
       effect="simplify"
       id="path-effect901-8-3"
       is_visible="true"
       lpeversion="1.3"
       threshold="10.8696"
       steps="1"
       smooth_angles="360"
       helper_size="0"
       simplify_individual_paths="false"
       simplify_just_coalesce="false" /><inkscape:path-effect
       effect="simplify"
       id="path-effect903-7-9"
       is_visible="true"
       lpeversion="1.3"
       threshold="10.8696"
       steps="1"
       smooth_angles="360"
       helper_size="0"
       simplify_individual_paths="false"
       simplify_just_coalesce="false" /><inkscape:path-effect
       effect="simplify"
       id="path-effect905-5-64"
       is_visible="true"
       lpeversion="1.3"
       threshold="10.8696"
       steps="1"
       smooth_angles="360"
       helper_size="0"
       simplify_individual_paths="false"
       simplify_just_coalesce="false" /><inkscape:path-effect
       effect="simplify"
       id="path-effect907-1-5"
       is_visible="true"
       lpeversion="1.3"
       threshold="10.8696"
       steps="1"
       smooth_angles="360"
       helper_size="0"
       simplify_individual_paths="false"
       simplify_just_coalesce="false" /><inkscape:path-effect
       effect="simplify"
       id="path-effect909-0-8"
       is_visible="true"
       lpeversion="1.3"
       threshold="10.8696"
       steps="1"
       smooth_angles="360"
       helper_size="0"
       simplify_individual_paths="false"
       simplify_just_coalesce="false" /></defs><g
     inkscape:groupmode="layer"
     id="layer3"
     inkscape:label="Layer 3"
     style="display:inline;opacity:1"
     transform="translate(-16.187881,-250.34127)"><g
       id="g624"
       transform="translate(313.74675,244.81899)"
       inkscape:export-filename="SK_00\botskin-default-000.png"
       inkscape:export-xdpi="96"
       inkscape:export-ydpi="96"><rect
         style="fill:none;fill-opacity:1;stroke:none;stroke-width:1.29083;stroke-linecap:round"
         id="rect610"
         width="45.155556"
         height="45.155556"
         x="-297.55887"
         y="5.5222869"
         inkscape:export-filename="SK_00\botskin-default-000.png"
         inkscape:export-xdpi="96"
         inkscape:export-ydpi="96" /><g
         id="g616"
         transform="translate(-315.56979,-9.6614757)"><g
           id="g615"><path
             id="path610"
             style="display:inline;fill:#0b0b0b;fill-opacity:1;stroke-width:0.0799999"
             d="m 33.789174,29.127163 0.16658,15.040383 c -5.75948,0.665908 -6.29181,-1.53309 -6.27508,-7.707484 0.0164,-6.036279 0.79144,-7.950893 6.1085,-7.332899 z"
             sodipodi:nodetypes="ccsc" /><path
             id="path611"
             style="display:inline;fill:#0b0b0b;fill-opacity:1;stroke-width:0.0799999"
             d="m 32.808444,30.40633 c -0.23672,3.544649 -0.0814,5.764812 0.10873,13.075729 0.0267,1.027321 -2.23178,-0.04042 -3.47752,0.346156 -0.37582,0.919623 -1.89621,5.714593 -0.98884,6.233139 3.83284,2.190423 7.92103,1.504124 9.18718,-0.737758 l 1.50763,-3.06205 c 1.08753,-0.07689 2.5613,-0.27118 4.44245,-0.01495 1.20093,0.977409 3.84167,6.02797 4.85325,5.898625 1.97994,-0.615648 4.69895,-2.190593 4.5849,-5.651788 0.2453,-0.817251 -2.76842,-3.485061 -3.34075,-3.61698 0.40847,-2.788226 0.16147,-5.338043 -0.0289,-8.159819 -0.11938,-1.769847 2.05975,-3.849144 0.45972,-7.34929 -1.11335,-2.435507 -3.2754,-6.11593 -9.43714,-5.976648 -6.16174,0.139283 -7.43557,2.49972 -7.87071,9.015634 z"
             sodipodi:nodetypes="sscscccsccsscs" /><path
             id="path612"
             style="display:inline;fill:#171717;fill-opacity:1;stroke-width:0.0799999"
             d="m 36.279954,23.913786 c -0.70859,0.63532 -1.91709,2.10055 -1.96474,10.10791 0.002,3.165442 0.18166,6.327755 0.21756,9.492444 0.0128,0.337462 1.52156,0.523101 1.15001,1.242288 -1.19376,0.985542 -2.98004,0.165969 -4.45796,-2.5e-4 -0.81233,0.630283 -1.30367,3.095879 -1.4008,4.114741 1.5295,0.727959 3.32377,1.193513 4.98832,0.660941 1.75835,-0.61651 2.23019,-2.756906 3.02927,-4.262272 0.88828,-1.177971 5.80509,-0.796166 6.45852,-0.467671 l 3.81683,-2.516643 c 0.15056,-1.361764 0.40701,-4.38361 0.28671,-7.139734 0.009,-1.273056 0.67734,-2.569863 0.93632,-3.787064 0.2881,-1.274581 -0.92695,-5.083754 -3.30921,-6.75791 -2.6664,-1.953608 -7.88838,-2.042087 -9.75083,-0.68678 z m 12.29641,20.165177 -2.98328,1.966805 c 1.27547,1.718792 1.82609,2.764289 2.95124,4.162537 1.02934,-0.205284 2.95695,-1.355219 2.84944,-3.47369 -0.70651,-1.57139 -2.01915,-2.03832 -2.8174,-2.655652 z"
             sodipodi:nodetypes="cccsccccccccccccccc" /><path
             id="path613"
             style="display:inline;fill:#2c2c2c;fill-opacity:1;stroke-width:0.0799999"
             d="m 32.907444,30.639274 c -3.76368,-1.001558 -3.90057,2.796889 -3.87591,5.776977 0.0247,2.980087 -0.4616,7.220599 3.86593,6.257302 z"
             sodipodi:nodetypes="czcc" /><path
             style="display:inline;fill:#171717;fill-opacity:1;stroke-width:0.0799999"
             d="m 24.845192,73.845433 c 0.165502,-0.08907 0.408726,-0.174082 0.703623,-0.242834 1.049276,-0.244629 2.752744,-0.283414 3.937001,0.433221 0.271235,7.180755 0.317729,10.28326 -1.290941,10.307525 -4.493516,0.06778 -3.274185,-7.151417 -3.349683,-10.497912 z"
             id="path614"
             sodipodi:nodetypes="cscsc"
             clip-path="url(#clipPath11)"
             transform="translate(3.827391,-41.077162)" /><path
             id="path615"
             style="display:inline;fill:#2c2c2c;fill-opacity:1;stroke-width:0.0799999"
             d="m 40.158272,22.999113 c -1.605557,0.005 -3.063495,0.321727 -3.878316,0.914673 -0.354368,0.317725 -0.833713,0.842975 -1.230416,2.290299 -1.880767,15.577729 10.52724,20.082424 13.446725,8.085812 4.64e-4,0.004 0.0011,0.0084 0.0016,0.0124 0.193039,-0.996987 0.640371,-1.994824 0.842326,-2.944006 0.288099,-1.27458 -0.927101,-5.083573 -3.309359,-6.757727 -1.499848,-1.098904 -3.808221,-1.607835 -5.87251,-1.601453 z" /></g></g><g
         id="g892-0-0"
         transform="translate(-493.77521,-289.46678)"
         style="display:inline"><g
           id="g844-8-76"
           transform="translate(0,44.425343)" /><g
           id="g891-7-8"><path
             style="display:inline;opacity:1;fill:#550000;fill-opacity:1;stroke:#000000;stroke-width:0.387252;stroke-linecap:round;stroke-linejoin:round"
             d="m 214.95062,266.94492 c 2.66999,4.67647 6.8943,5.49337 12.51989,3.51764 l -0.16829,4.77048 c -3.44521,0.99994 -7.10481,1.05918 -9.61664,-1.93436 -0.48416,-0.57701 -1.03873,-2.07067 -1.35727,-2.87226 -0.5208,-1.31056 -1.48259,-2.24996 -1.5842,-3.37356 z"
             id="path844-8-24"
             sodipodi:nodetypes="cccsscc"
             transform="translate(0,44.425343)" /><path
             style="display:inline;opacity:1;fill:#f9f9f9;fill-opacity:1;stroke:#000000;stroke-width:0.117705;stroke-linecap:butt;stroke-linejoin:round"
             d="m 227.49638,270.77102 -0.15306,1.93802 0.50046,-2.02096 z"
             id="path845-2-46"
             sodipodi:nodetypes="cccc"
             transform="translate(0,44.425343)" /><path
             style="display:inline;opacity:1;fill:#f9f9f9;fill-opacity:1;stroke:#000000;stroke-width:0.141148;stroke-linecap:butt;stroke-linejoin:round"
             d="m 227.0807,270.79464 -0.0826,1.98598 0.4532,-2.02879 z"
             id="path846-7-0"
             sodipodi:nodetypes="cccc"
             transform="translate(0,44.425343)" /><path
             style="display:inline;opacity:1;fill:#f9f9f9;fill-opacity:1;stroke:#000000;stroke-width:0.141148;stroke-linecap:butt;stroke-linejoin:round"
             d="m 226.56662,271.05642 0.17213,1.84319 0.27778,-2.06449 z"
             id="path847-1-2"
             sodipodi:nodetypes="cccc"
             transform="translate(0,44.425343)" /><path
             style="display:inline;opacity:1;fill:#f9f9f9;fill-opacity:1;stroke:#000000;stroke-width:0.141148;stroke-linecap:butt;stroke-linejoin:round"
             d="m 226.13825,271.13971 0.17213,1.84319 0.27778,-2.06449 z"
             id="path848-7-6"
             sodipodi:nodetypes="cccc"
             transform="translate(0,44.425343)" /><path
             style="display:inline;opacity:1;fill:#f9f9f9;fill-opacity:1;stroke:#000000;stroke-width:0.141148;stroke-linecap:butt;stroke-linejoin:round"
             d="m 225.74558,271.18731 0.17213,1.84319 0.29461,-1.97194 z"
             id="path849-3-75"
             sodipodi:nodetypes="cccc"
             transform="translate(0,44.425343)" /><path
             style="display:inline;opacity:1;fill:#f9f9f9;fill-opacity:1;stroke:#000000;stroke-width:0.117705;stroke-linecap:butt;stroke-linejoin:round"
             d="m 224.27121,271.35563 c 0.003,0.64196 0.39645,1.07486 0.69084,1.64616 -0.0736,-0.56217 -0.27315,-1.0859 -0.17648,-1.64806 z"
             id="path850-0-53"
             sodipodi:nodetypes="cccc"
             transform="translate(0,44.425343)" /><path
             style="display:inline;opacity:1;fill:#f9f9f9;fill-opacity:1;stroke:#000000;stroke-width:0.117705;stroke-linecap:butt;stroke-linejoin:round"
             d="m 223.67626,271.47462 c 0.003,0.64196 0.39645,1.07486 0.69084,1.64616 -0.0736,-0.56217 -0.27315,-1.0859 -0.17648,-1.64806 z"
             id="path851-8-7"
             sodipodi:nodetypes="cccc"
             transform="translate(0,44.425343)" /><path
             style="display:inline;opacity:1;fill:#f9f9f9;fill-opacity:1;stroke:#000000;stroke-width:0.117705;stroke-linecap:butt;stroke-linejoin:round"
             d="m 223.00991,271.56982 c 0.003,0.64196 0.39645,1.07486 0.69084,1.64616 -0.0736,-0.56217 -0.27315,-1.0859 -0.17648,-1.64806 z"
             id="path852-7-3"
             sodipodi:nodetypes="cccc"
             transform="translate(0,44.425343)" /><path
             style="display:inline;opacity:1;fill:#f9f9f9;fill-opacity:1;stroke:#000000;stroke-width:0.141148;stroke-linecap:butt;stroke-linejoin:round"
             d="m 225.3922,271.19572 0.17213,1.84319 0.23571,-1.90463 z"
             id="path853-6-4"
             sodipodi:nodetypes="cccc"
             transform="translate(0,44.425343)" /><path
             style="display:inline;opacity:1;fill:#f9f9f9;fill-opacity:1;stroke:#000000;stroke-width:0.141148;stroke-linecap:butt;stroke-linejoin:round"
             d="m 224.91261,271.31352 0.17213,1.84319 0.26095,-1.8878 z"
             id="path854-3-8"
             sodipodi:nodetypes="cccc"
             transform="translate(0,44.425343)" /><path
             style="display:inline;opacity:1;fill:#fc3c48;fill-opacity:1;stroke:#000000;stroke-width:0.261509;stroke-linecap:round"
             d="m 222.79605,272.4626 c 1.47699,1.05236 2.45336,0.51174 3.97781,3.33447 1.14742,2.12461 2.14983,3.81744 3.79241,4.83485 2.85017,1.76539 6.60007,-0.89775 3.62749,-6.88182 -0.074,3.06073 0.19488,5.38792 -2.09931,5.34182 -4.10402,-0.0824 -1.97475,-7.13634 -6.69087,-7.44177 z"
             id="path855-0-7"
             sodipodi:nodetypes="csscscc"
             transform="translate(0,44.425343)" /><path
             style="display:inline;opacity:1;fill:#f9f9f9;fill-opacity:1;stroke:#000000;stroke-width:0.117705;stroke-linecap:butt;stroke-linejoin:round"
             d="m 222.40307,271.48698 c 0.003,0.79491 0.39645,1.33095 0.69084,2.03837 -0.0736,-0.69611 -0.27315,-1.34462 -0.17648,-2.04073 z"
             id="path856-6-43"
             sodipodi:nodetypes="cccc"
             transform="translate(0,44.425343)" /><path
             style="display:inline;opacity:1;fill:#f9f9f9;fill-opacity:1;stroke:#000000;stroke-width:0.261509;stroke-linecap:butt;stroke-linejoin:round"
             d="m 216.30679,260.18068 c 3.90484,6.77842 4.17622,7.9239 8.39056,10.08765 0.33414,-8.92429 -4.78746,-9.51909 -8.39056,-10.08765 z"
             id="path857-7-0"
             sodipodi:nodetypes="ccc"
             transform="translate(0,44.425343)" /><path
             style="display:inline;opacity:1;fill:#cccccc;fill-opacity:1;stroke:#000000;stroke-width:0.261509;stroke-linecap:butt;stroke-linejoin:round"
             d="m 223.17836,259.39898 c 2.16344,2.52129 3.70692,4.84696 3.67968,10.31891 2.9003,-2.24194 1.55918,-9.31475 -3.67968,-10.31891 z"
             id="path858-0-00"
             sodipodi:nodetypes="ccc"
             transform="translate(0,44.425343)" /><path
             style="display:inline;opacity:1;fill:#cccccc;fill-opacity:1;stroke:none;stroke-width:0.261509;stroke-linecap:butt;stroke-linejoin:round"
             d="m 220.4925,266.88725 c 1.11912,1.27848 1.79187,2.09019 4.09776,3.1629 0.12166,-3.41437 -0.40564,-5.20762 -1.64495,-6.82883 1.33669,1.89906 1.48759,7.11645 -2.45281,3.66593 z"
             id="path859-3-9"
             sodipodi:nodetypes="cccc"
             transform="translate(0,44.425343)" /><path
             style="display:inline;opacity:1;fill:#000000;fill-opacity:1;fill-rule:nonzero;stroke:none;stroke-width:0.261509;stroke-linecap:round"
             d="m 224.36368,272.09223 c 0.0139,0.0337 0.0112,0.14798 0.079,0.20336 0.11705,0.0956 0.47888,0.13043 0.90927,0.27956 0.31991,0.11085 0.62735,0.26584 0.90666,0.47887 0.0492,0.0375 0.0982,0.0764 0.14682,0.11665 0.33821,0.27989 0.69524,0.65489 1.01869,1.17468 0.26377,0.42387 0.53542,0.99201 0.74935,1.76229 0.0184,0.0662 0.0368,0.13529 0.055,0.20721 0.0479,0.14549 0.11925,0.3234 0.22498,0.53552 0.0917,0.18402 0.2013,0.3774 0.32355,0.56903 0.12803,0.20069 0.25883,0.38207 0.38286,0.53671 0.1756,0.21893 0.31411,0.35514 0.39933,0.43067 -0.0758,-0.0844 -0.20187,-0.23181 -0.35805,-0.46122 -0.11024,-0.16192 -0.22608,-0.35115 -0.33544,-0.55784 -0.10459,-0.19765 -0.19498,-0.39572 -0.26456,-0.58174 -0.0803,-0.21449 -0.12428,-0.3899 -0.14185,-0.52505 -0.0159,-0.0742 -0.0319,-0.14554 -0.0481,-0.21413 -0.18652,-0.79469 -0.41871,-1.41058 -0.65514,-1.88606 -0.29197,-0.58719 -0.63152,-1.04342 -1.00733,-1.38479 -0.0534,-0.0485 -0.1079,-0.095 -0.16344,-0.13946 -0.31494,-0.25198 -0.65664,-0.46268 -1.03242,-0.60773 -0.50317,-0.19423 -0.94681,-0.21424 -1.08873,-0.13261 -0.0808,0.0465 -0.0855,0.16464 -0.10049,0.19608 z"
             id="path860-8-6"
             sodipodi:nodetypes="csc"
             inkscape:path-effect="#path-effect893-6-5"
             inkscape:original-d="m 224.36368,272.09223 c 1.36211,0.0371 3.21359,0.9139 3.98019,4.19566 0.15054,0.64444 0.71761,1.60439 1.21531,2.09889"
             transform="translate(0,44.425343)" /><path
             style="display:inline;opacity:1;fill:#f9f9f9;fill-opacity:1;stroke:#000000;stroke-width:0.117705;stroke-linecap:butt;stroke-linejoin:round"
             d="m 221.66533,271.48698 c 0.003,0.79491 0.55114,1.25956 0.84553,1.96698 -0.1331,-0.69611 -0.42784,-1.27323 -0.33117,-1.96934 z"
             id="path861-8-5"
             sodipodi:nodetypes="cccc"
             transform="translate(0,44.425343)" /><path
             style="display:inline;opacity:1;fill:#f9f9f9;fill-opacity:1;stroke:#000000;stroke-width:0.117705;stroke-linecap:butt;stroke-linejoin:round"
             d="m 221.01088,271.43938 c 0.003,0.79491 0.43215,1.16437 0.88123,1.81229 -0.2164,-0.69611 -0.46354,-1.11854 -0.36687,-1.81465 z"
             id="path862-6-5"
             sodipodi:nodetypes="cccc"
             transform="translate(0,44.425343)" /><path
             style="display:inline;opacity:1;fill:#f9f9f9;fill-opacity:1;stroke:#000000;stroke-width:0.0984164;stroke-linecap:butt;stroke-linejoin:round"
             d="m 220.50148,271.36989 c 0.002,0.67826 0.35408,0.9935 0.72203,1.54634 -0.17731,-0.59396 -0.3798,-0.9544 -0.3006,-1.54835 z"
             id="path863-2-6"
             sodipodi:nodetypes="cccc"
             transform="translate(0,44.425343)" /><path
             style="display:inline;opacity:1;fill:#f9f9f9;fill-opacity:1;stroke:#000000;stroke-width:0.117705;stroke-linecap:butt;stroke-linejoin:round"
             d="m 221.59047,275.43003 c -0.14369,-0.88486 -0.0972,-1.85274 0.14612,-2.71735 -0.4503,0.82094 -0.74,1.50796 -0.99398,2.45096 z"
             id="path864-3-4"
             sodipodi:nodetypes="cccc"
             transform="translate(0,44.425343)" /><path
             style="display:inline;opacity:1;fill:#f9f9f9;fill-opacity:1;stroke:#000000;stroke-width:0.0747962;stroke-linecap:butt;stroke-linejoin:round"
             d="m 220.00181,271.22676 c 0.001,0.53223 0.26063,0.7796 0.53147,1.21341 -0.13052,-0.46608 -0.27956,-0.74892 -0.22127,-1.21499 z"
             id="path865-2-5"
             sodipodi:nodetypes="cccc"
             transform="translate(0,44.425343)" /><path
             style="display:inline;opacity:1;fill:#f9f9f9;fill-opacity:1;stroke:#000000;stroke-width:0.0747962;stroke-linecap:butt;stroke-linejoin:round"
             d="m 219.50205,271.11967 c 0.001,0.53223 0.18924,0.88669 0.46008,1.3205 -0.0888,-0.46608 -0.14342,-0.73702 -0.0785,-1.20309 z"
             id="path866-9-2"
             sodipodi:nodetypes="cccc"
             transform="translate(0,44.425343)" /><path
             style="display:inline;opacity:1;fill:#f9f9f9;fill-opacity:1;stroke:#000000;stroke-width:0.0780502;stroke-linecap:butt;stroke-linejoin:round"
             d="m 218.96822,270.84762 c 9.9e-4,0.58367 0.1879,0.97239 0.45682,1.44813 -0.0882,-0.51113 -0.1424,-0.80826 -0.0779,-1.31937 z"
             id="path867-2-9"
             sodipodi:nodetypes="cccc"
             transform="translate(0,44.425343)" /><path
             style="display:inline;opacity:1;fill:#f9f9f9;fill-opacity:1;stroke:#000000;stroke-width:0.0780502;stroke-linecap:butt;stroke-linejoin:round"
             d="m 218.58745,270.70483 c 9.9e-4,0.58367 0.1879,0.97239 0.45682,1.44813 -0.0882,-0.51113 -0.1424,-0.80826 -0.0779,-1.31937 z"
             id="path868-8-25"
             sodipodi:nodetypes="cccc"
             transform="translate(0,44.425343)" /><path
             style="display:inline;opacity:1;fill:#f9f9f9;fill-opacity:1;stroke:#000000;stroke-width:0.082841;stroke-linecap:butt;stroke-linejoin:round"
             d="m 218.11388,270.44545 c 9.6e-4,0.68245 0.18104,1.13696 0.44014,1.69322 -0.085,-0.59764 -0.1372,-0.94506 -0.0751,-1.54267 z"
             id="path869-0-9"
             sodipodi:nodetypes="cccc"
             transform="translate(0,44.425343)" /><path
             style="display:inline;opacity:1;fill:#f9f9f9;fill-opacity:1;stroke:#000000;stroke-width:0.082841;stroke-linecap:butt;stroke-linejoin:round"
             d="m 217.51893,270.06786 c 9.6e-4,0.6828 0.18104,1.20286 0.44014,1.85344 -0.085,-0.62858 -0.1372,-0.995 -0.0751,-1.57 z"
             id="path870-1-4"
             sodipodi:nodetypes="cccc"
             transform="translate(0,44.425343)" /><path
             style="display:inline;opacity:1;fill:#f9f9f9;fill-opacity:1;stroke:#000000;stroke-width:0.117705;stroke-linecap:butt;stroke-linejoin:round"
             d="m 220.72383,275.14397 c -0.0437,-0.91342 0.20091,-1.85138 0.39013,-2.70053 -0.4503,0.82094 -0.77366,1.57527 -1.02764,2.51827 z"
             id="path871-1-66"
             sodipodi:nodetypes="cccc"
             transform="translate(0,44.425343)" /><path
             style="display:inline;opacity:1;fill:#f9f9f9;fill-opacity:1;stroke:#000000;stroke-width:0.117705;stroke-linecap:butt;stroke-linejoin:round"
             d="m 220.00989,274.8703 c -0.0437,-0.91342 0.17711,-2.02987 0.36633,-2.87902 -0.4503,0.82094 -0.77366,1.57527 -1.02764,2.51827 z"
             id="path872-0-3"
             sodipodi:nodetypes="cccc"
             transform="translate(0,44.425343)" /><path
             style="display:inline;opacity:1;fill:#f9f9f9;fill-opacity:1;stroke:#000000;stroke-width:0.117705;stroke-linecap:butt;stroke-linejoin:round"
             d="m 219.19899,274.34674 c -0.0397,-0.77751 0.1607,-1.72784 0.3324,-2.45065 -0.40859,0.69879 -0.702,1.34089 -0.93245,2.14358 z"
             id="path873-9-1"
             sodipodi:nodetypes="cccc"
             transform="translate(0,44.425343)" /><path
             style="display:inline;opacity:1;fill:#f9f9f9;fill-opacity:1;stroke:#000000;stroke-width:0.117705;stroke-linecap:butt;stroke-linejoin:round"
             d="m 218.50885,273.84698 c -0.0397,-0.77751 0.32729,-1.50176 0.49899,-2.22457 -0.40859,0.69879 -0.7377,0.98392 -0.96815,1.78661 z"
             id="path874-5-0"
             sodipodi:nodetypes="cccc"
             transform="translate(0,44.425343)" /><path
             style="display:inline;opacity:1;fill:#f9f9f9;fill-opacity:1;stroke:#000000;stroke-width:0.117705;stroke-linecap:butt;stroke-linejoin:round"
             d="m 218.11618,273.37102 c -0.0397,-0.77751 0.0298,-1.23998 0.20149,-1.96279 -0.40874,0.7003 -0.47022,1.02218 -0.67067,1.52483 z"
             id="path875-9-66"
             sodipodi:nodetypes="cccc"
             transform="translate(0,44.425343)" /><path
             style="display:inline;opacity:1;fill:#f9f9f9;fill-opacity:1;stroke:#000000;stroke-width:0.117705;stroke-linecap:butt;stroke-linejoin:round"
             d="m 222.53282,275.57307 c -0.14369,-0.88486 -0.1393,-1.75178 0.10405,-2.61639 -0.4503,0.82094 -0.69793,1.5332 -0.95191,2.4762 z"
             id="path876-9-4"
             sodipodi:nodetypes="cccc"
             transform="translate(0,44.425343)" /><path
             style="display:inline;opacity:1;fill:#f9f9f9;fill-opacity:1;stroke:#000000;stroke-width:0.117705;stroke-linecap:butt;stroke-linejoin:round"
             d="m 223.20245,275.63809 c -0.14369,-0.88486 -0.0685,-1.58121 -0.0103,-2.48789 -0.33546,0.87983 -0.49318,1.50957 -0.67425,2.45257 z"
             id="path877-7-82"
             sodipodi:nodetypes="cccc"
             transform="translate(0,44.425343)" /><path
             style="display:inline;opacity:1;fill:#c03c33;fill-opacity:1;stroke:none;stroke-width:0.387252;stroke-linecap:round;stroke-linejoin:round"
             d="m 215.09341,267.38518 c 0.77754,1.36185 1.15502,1.91297 2.1924,2.64654 -0.0966,0.81974 -0.026,1.63949 0.13067,2.45923 -0.48416,-0.57701 -0.63487,-1.33025 -0.95341,-2.13184 -0.5208,-1.31056 -1.42683,-2.01606 -1.52844,-3.13966 z"
             id="path878-2-5"
             sodipodi:nodetypes="cccscc"
             transform="translate(0,44.425343)" /><path
             style="display:inline;opacity:1;fill:#f9f9f9;fill-opacity:1;stroke:#000000;stroke-width:0.117705;stroke-linecap:butt;stroke-linejoin:round"
             d="m 223.81198,275.63606 c -0.14369,-0.88486 -0.0685,-1.26589 -0.0103,-2.17257 -0.33546,0.87983 -0.38609,1.24184 -0.56716,2.18484 z"
             id="path879-3-7"
             sodipodi:nodetypes="cccc"
             transform="translate(0,44.425343)" /><path
             style="display:inline;opacity:1;fill:#f9f9f9;fill-opacity:1;stroke:#000000;stroke-width:0.117705;stroke-linecap:butt;stroke-linejoin:round"
             d="m 224.30579,275.62416 c -0.14369,-0.88486 -0.0804,-0.71853 -0.0936,-1.63711 -0.25811,0.92742 -0.18975,0.67664 -0.37082,1.61964 z"
             id="path880-1-5"
             sodipodi:nodetypes="cccc"
             transform="translate(0,44.425343)" /><path
             style="display:inline;opacity:1;fill:#f9f9f9;fill-opacity:1;stroke:#000000;stroke-width:0.117705;stroke-linecap:butt;stroke-linejoin:round"
             d="m 225.29021,275.50216 c -0.14248,-0.88629 -0.41098,-1.26753 -0.62367,-1.86008 0.005,0.8649 -0.13085,1.36237 -0.21937,1.96881 z"
             id="path881-2-2"
             sodipodi:nodetypes="cccc"
             transform="translate(0,44.425343)" /><path
             style="display:inline;opacity:1;fill:#f9f9f9;fill-opacity:1;stroke:#000000;stroke-width:0.117705;stroke-linecap:butt;stroke-linejoin:round"
             d="m 226.05588,275.33388 c -0.2323,-0.8645 -0.35764,-0.95999 -0.80036,-1.50669 0.1312,0.73027 0.23936,1.03422 0.15084,1.64066 z"
             id="path882-5-4"
             sodipodi:nodetypes="cccc"
             transform="translate(0,44.425343)" /><path
             style="opacity:1;fill:#c03c33;fill-opacity:1;stroke:none;stroke-width:0.387252;stroke-linecap:butt;stroke-linejoin:round"
             d="m 233.356,318.06922 c 0,0 0.17056,0.25781 0.17056,0.25781 0,0 -0.17056,-0.25781 -0.17056,-0.25781 z"
             id="path883-0-6"
             inkscape:path-effect="#path-effect895-3-21"
             inkscape:original-d="m 233.18545,317.81141 c 0.17055,0.25781 0.34111,0.51562 0.51166,0.77343 -0.17055,-0.25781 -0.34111,-0.51562 -0.51166,-0.77343 z" /><path
             style="opacity:1;fill:#f7f5dd;fill-opacity:1;stroke:#000000;stroke-width:0.0784532;stroke-linecap:butt;stroke-linejoin:round"
             d="m 235.41675,323.69815 c 0.0134,0.0466 0.005,0.096 -0.007,0.14192 -0.0235,0.0936 -0.061,0.18295 -0.0999,0.27106 -0.0794,0.1803 -0.1724,0.35465 -0.24446,0.53813 -0.0278,0.0708 -0.0564,0.14265 -0.066,0.21849 -0.005,0.0419 -0.009,0.0961 0.0278,0.12373 0.0198,0.0148 0.0492,0.0266 0.0723,0.0161 0.087,-0.0394 0.15619,-0.10972 0.20957,-0.18755 0.0747,-0.10901 0.12485,-0.23342 0.15769,-0.36093 0.0367,-0.14258 0.0552,-0.29089 0.0449,-0.43798 -0.007,-0.0949 -0.0234,-0.19129 -0.0672,-0.27665 -0.008,-0.0161 -0.0175,-0.0316 -0.0279,-0.0464 z"
             id="path885-1-5"
             inkscape:path-effect="#path-effect899-3-93"
             inkscape:original-d="m 235.41675,323.69815 c 0.0838,0.26355 -0.67947,1.30484 -0.3261,1.31338 0.38548,-0.16139 0.54162,-1.0082 0.3261,-1.31338 z"
             sodipodi:nodetypes="ccc" /><path
             style="opacity:1;fill:#f7f5dd;fill-opacity:1;stroke:#000000;stroke-width:0.0784532;stroke-linecap:butt;stroke-linejoin:round"
             d="m 221.33675,320.39253 c -0.0564,0.0488 -0.0992,0.11346 -0.12027,0.18522 -0.0262,0.0892 -0.0197,0.18587 0.009,0.27366 0.0237,0.0729 0.0606,0.14289 0.11468,0.19761 0.0313,0.0317 0.0695,0.06 0.11469,0.0675 0.0398,0.007 0.0772,-0.0187 0.0972,-0.0521 0.0247,-0.0414 0.0345,-0.0896 0.0397,-0.1369 0.004,-0.0349 0.0152,-0.0717 0.005,-0.10516 -0.0194,-0.0617 -0.0441,-0.12161 -0.0717,-0.17998 -0.0297,-0.0626 -0.0599,-0.12605 -0.10341,-0.18021 -0.0226,-0.0282 -0.0478,-0.06 -0.0844,-0.0696 z"
             id="path886-6-95"
             inkscape:path-effect="#path-effect901-8-3"
             inkscape:original-d="m 221.33675,320.39253 c -0.42173,0.36857 0.26761,1.15107 0.25951,0.42976 -0.0278,-0.0929 -0.1583,-0.40846 -0.25951,-0.42976 z"
             sodipodi:nodetypes="ccc" /><path
             style="opacity:1;fill:#f7f5dd;fill-opacity:1;stroke:#000000;stroke-width:0.0784532;stroke-linecap:butt;stroke-linejoin:round"
             d="m 219.3257,318.6626 c -0.11143,-0.006 -0.22396,0.0217 -0.3206,0.0774 -0.1235,0.0713 -0.2202,0.18183 -0.29204,0.30361 -0.0935,0.15856 -0.15191,0.3369 -0.17728,0.51882 -0.0204,0.14633 -0.022,0.29711 0.0117,0.44155 0.007,0.0289 0.002,0.0669 0.0249,0.0853 0.0366,0.0291 0.0774,0.057 0.12488,0.0635 0.0431,0.006 0.0811,-0.0238 0.1026,-0.0589 0.0338,-0.0551 0.0502,-0.11857 0.0637,-0.18114 0.0394,-0.18259 0.0528,-0.37057 0.10523,-0.55028 0.0219,-0.0752 0.0488,-0.15163 0.0995,-0.2126 0.0175,-0.0211 0.0483,-0.0298 0.062,-0.0537 0.0787,-0.13774 0.15611,-0.27886 0.19541,-0.43371 z"
             id="path887-6-40"
             inkscape:path-effect="#path-effect903-7-9"
             inkscape:original-d="m 219.3257,318.6626 c -0.63511,-0.0316 -0.93114,0.93063 -0.75329,1.42674 0.42204,0.34411 0.22934,-0.80175 0.55788,-0.99303 0.0787,-0.13772 0.15612,-0.27887 0.19541,-0.43371 z"
             sodipodi:nodetypes="cccc" /><path
             id="path888-8-09"
             style="opacity:1;mix-blend-mode:multiply;fill:none;fill-opacity:1;stroke:#800000;stroke-width:0.0784532;stroke-linecap:butt;stroke-linejoin:round"
             inkscape:path-effect="#path-effect905-5-64"
             inkscape:original-d="m 217.31145,314.44526 c -0.19208,0.72389 0.0926,2.40095 0.0971,2.5898 m -0.25296,-2.77274 c -0.28304,0.64772 -0.0702,2.36396 -0.008,2.44914 m -1.86373,-4.77922 c -0.03,0.19918 -0.19761,0.36697 -0.1591,0.57766 m 0.30468,-0.26403 c -0.0399,0.23358 -0.1648,0.46323 -0.10561,0.70493 m 0.28834,-0.34509 c -0.11746,0.16264 -0.13615,0.37318 -0.12435,0.56743 m 0.35208,-0.2421 c -0.0884,0.17603 -0.12697,0.37737 -0.1061,0.57349 m 0.31632,-0.35637 c -0.0911,0.17234 -0.13097,0.36538 -0.16878,0.55486 m 0.41491,-0.2499 c -0.13102,0.0477 -0.22737,0.65545 -0.22219,0.75317 m 0.4294,-0.51651 c -0.10307,0.43425 -0.19349,0.82084 -0.0454,1.24703 m 0.29793,-1.01581 c -0.11408,0.43016 -0.11738,1.59782 0.0587,2.0063"
             d="m 217.31145,314.44526 c -0.0557,0.21891 -0.0667,0.44638 -0.0665,0.67123 4.1e-4,0.49849 0.0559,0.99476 0.11369,1.48933 0.0163,0.13978 0.0375,0.27906 0.0495,0.41931 0,0 4.1e-4,0.01 4.1e-4,0.01 m -0.25296,-2.77274 c -0.0766,0.18141 -0.10653,0.37859 -0.12354,0.5734 -0.0339,0.38851 -0.0241,0.77992 0.0103,1.16788 0.0186,0.20916 0.0301,0.42079 0.0802,0.62491 0.007,0.0279 0.0111,0.0574 0.025,0.0829 m -1.86373,-4.77922 c -0.0263,0.17282 -0.15278,0.31479 -0.16407,0.49111 -0.002,0.0289 -2.6e-4,0.058 0.005,0.0865 m 0.30468,-0.26403 c -0.0328,0.19163 -0.1208,0.37323 -0.12126,0.57014 -1.1e-4,0.0453 0.005,0.0907 0.0156,0.13479 m 0.28834,-0.34509 c -0.11746,0.16263 -0.13615,0.37319 -0.12435,0.56743 m 0.35208,-0.2421 c -0.0884,0.17603 -0.12697,0.37737 -0.1061,0.57349 m 0.31632,-0.35637 c -0.0911,0.17234 -0.13097,0.36538 -0.16878,0.55486 m 0.41491,-0.2499 c -0.0446,0.021 -0.0675,0.0691 -0.0855,0.11206 -0.0589,0.14033 -0.0924,0.29013 -0.11499,0.44001 -0.0101,0.0666 -0.0215,0.13359 -0.0216,0.2011 m 0.4294,-0.51651 c -0.0669,0.28377 -0.13726,0.5722 -0.12073,0.86603 0.007,0.1297 0.0325,0.25833 0.0753,0.381 m 0.29793,-1.01581 c -0.0442,0.1762 -0.0609,0.35806 -0.0705,0.53895 -0.0178,0.33351 -0.0177,0.66941 0.0246,1.0009 0.0197,0.1546 0.043,0.31099 0.10054,0.45674 0,0 0.002,0.005 0.002,0.005 0,0 0.002,0.005 0.002,0.005"
             sodipodi:nodetypes="cccccccccccccccccccc" /><path
             style="opacity:1;mix-blend-mode:multiply;fill:#aa0000;fill-opacity:1;stroke:none;stroke-width:0.0784532;stroke-linecap:butt;stroke-linejoin:round"
             d="m 223.0971,316.81359 0.26185,-0.0393 2.06863,-0.70699 1.48477,0.40255 c -0.23661,0.0325 -0.4749,-0.004 -0.70261,0.0532 -0.15827,0.0401 -0.30059,0.007 -0.44447,0.11245 -0.60586,0.28927 -0.83462,0.15052 -1.44176,0.45859 0.87741,0.19625 1.42941,0.53354 1.94561,1.28845 1.15277,1.68587 2.20207,5.33783 5.07057,6.71405 0.75818,0.36375 1.77842,0.0607 2.9792,-0.23948 l -0.61682,0.46656 -1.33544,0.31422 -1.28307,-0.24876 -1.97698,-1.46635 -1.66275,-2.57924 -1.44018,-2.36976 -1.19143,-1.11287 -1.36162,-0.60224 -0.45824,-0.30115 z"
             id="path889-9-5"
             sodipodi:nodetypes="ccccsscssccccccccccc" /><path
             style="opacity:1;fill:#f7f5dd;fill-opacity:1;stroke:#000000;stroke-width:0.0784532;stroke-linecap:butt;stroke-linejoin:round"
             d="m 235.1073,323.2699 c -0.10535,-0.006 -0.21339,0.0161 -0.30411,0.0714 -0.10639,0.0649 -0.1842,0.16685 -0.24365,0.27449 -0.0973,0.17622 -0.1562,0.36969 -0.22641,0.55746 -0.0281,0.075 -0.0688,0.145 -0.0942,0.22106 -0.0284,0.085 -0.0726,0.16364 -0.11578,0.24183 -0.0754,0.13658 -0.16167,0.26788 -0.2232,0.41147 -0.0201,0.0469 -0.0386,0.0954 -0.0443,0.14677 -0.003,0.0275 0.0203,0.0833 0.0422,0.0627 0.27496,-0.25762 0.55315,-0.5149 0.78656,-0.81199 0.16089,-0.20478 0.3166,-0.4242 0.38838,-0.67534 0.0462,-0.16171 0.0607,-0.33346 0.0345,-0.49993 z"
             id="path890-6-8"
             inkscape:path-effect="#path-effect907-1-5"
             inkscape:original-d="m 235.1073,323.2699 c -0.58639,-0.0314 -0.66091,0.72299 -0.86841,1.12444 -0.0774,0.24608 -0.52004,0.82577 -0.34105,0.86282 0.45837,-0.42936 0.95537,-0.88519 1.17494,-1.48733 0.0462,-0.16171 0.0607,-0.33338 0.0345,-0.49993 z" /><path
             style="opacity:1;fill:#f7f5dd;fill-opacity:1;stroke:#000000;stroke-width:0.0784532;stroke-linecap:butt;stroke-linejoin:round"
             d="m 233.12555,325.10457 c -0.0445,0.0152 -0.0901,0.0341 -0.12229,0.0698 -0.0264,0.0293 -0.0283,0.0723 -0.0169,0.10858 0.0177,0.0563 0.0506,0.10617 0.0825,0.15519 0.0652,0.10009 0.13093,0.20148 0.17162,0.31463 0.0356,0.099 0.0473,0.20686 0.0297,0.31091 -0.0138,0.0813 -0.11316,0.15356 -0.0846,0.23064 0.0253,0.0684 0.0524,0.13767 0.0961,0.19665 0.0243,0.0327 0.0634,0.0737 0.10681,0.0565 0.0426,-0.0168 0.0656,-0.0605 0.082,-0.10049 0.0329,-0.08 0.0487,-0.16589 0.0577,-0.25148 0.0174,-0.16583 0.0123,-0.33437 -0.0178,-0.49836 -0.0245,-0.13333 -0.0646,-0.26595 -0.1361,-0.38204 -0.0579,-0.094 -0.14218,-0.17568 -0.24884,-0.21054 z"
             id="path891-5-9"
             inkscape:path-effect="#path-effect909-0-8"
             inkscape:original-d="m 233.12555,325.10457 c -0.48887,0.16112 0.43762,0.5171 0.0601,1.18974 0.33709,0.93354 0.61134,-0.96564 -0.0601,-1.18974 z"
             sodipodi:nodetypes="ccc" /></g></g></g></g></svg>
