<?xml version="1.0" encoding="UTF-8" standalone="no"?>
<!-- Created with Inkscape (http://www.inkscape.org/) -->

<svg
   width="45.155556mm"
   height="45.155552mm"
   viewBox="0 0 45.155556 45.155552"
   version="1.1"
   id="svg1"
   xml:space="preserve"
   inkscape:version="1.3.2 (091e20e, 2023-11-25, custom)"
   sodipodi:docname="Amongus.svg"
   xmlns:inkscape="http://www.inkscape.org/namespaces/inkscape"
   xmlns:sodipodi="http://sodipodi.sourceforge.net/DTD/sodipodi-0.dtd"
   xmlns="http://www.w3.org/2000/svg"
   xmlns:svg="http://www.w3.org/2000/svg"><sodipodi:namedview
     id="namedview1"
     pagecolor="#ffffff"
     bordercolor="#000000"
     borderopacity="0.25"
     inkscape:showpageshadow="2"
     inkscape:pageopacity="0.0"
     inkscape:pagecheckerboard="0"
     inkscape:deskcolor="#d1d1d1"
     inkscape:document-units="mm"
     inkscape:zoom="1.3897307"
     inkscape:cx="886.14294"
     inkscape:cy="192.12356"
     inkscape:window-width="1920"
     inkscape:window-height="965"
     inkscape:window-x="-8"
     inkscape:window-y="-8"
     inkscape:window-maximized="1"
     inkscape:current-layer="layer3" /><defs
     id="defs1"><clipPath
       clipPathUnits="userSpaceOnUse"
       id="clipPath11"><path
         id="path12"
         style="display:inline;opacity:1;fill:#000080;stroke-width:0.0799997"
         d="m 29.080047,71.716437 c -3.763679,-1.001559 -3.900566,2.796889 -3.875901,5.776976 0.02466,2.980087 -0.461604,7.220598 3.865926,6.257303 z"
         sodipodi:nodetypes="czcc" /></clipPath><clipPath
       clipPathUnits="userSpaceOnUse"
       id="clipPath37"><path
         id="path38"
         style="fill:#000080;stroke-width:0.0799999"
         d="m 30.257739,78.314269 c 0,0 -0.07718,0.02529 0.191482,9.972839 0.07977,2.519882 4.731062,3.049961 4.785156,0.962891 l 0.05859,-3.13672 c 0.01622,-0.876639 0.557332,-1.977451 1.383292,-1.683261 2.4569,0.875101 4.957437,0.19459 5.139672,0.188341 -0.642586,0.634399 -1.218692,1.06499 -2.188171,1.32606 -0.03775,1.484569 -0.0066,3.562749 1.620277,3.55754 3.754816,-0.01199 3.570946,-9.534909 3.337441,-13.078 -1.599946,2.26555 -3.714028,1.81886 -6.88045,1.297411 -2.070497,-0.340971 -2.9757,0.100798 -7.447291,0.592899 z"
         sodipodi:nodetypes="scccsccscss" /></clipPath></defs><g
     inkscape:groupmode="layer"
     id="layer2"
     inkscape:label="Layer 2"
     style="display:none;opacity:1"
     transform="translate(-16.187881,-100.0271)"><path
       id="path27"
       style="fill:#00ff00;stroke-width:0.0799999"
       d="m 30.301103,109.5122 -0.172737,9.25345 c -5.75948,0.66591 -6.545393,-0.4124 -6.005844,-6.5632 0.452911,-5.16315 5.189362,-2.88842 6.178581,-2.69025 z"
       sodipodi:nodetypes="ccsc" /><path
       style="fill:#00ff00;stroke:#000000;stroke-width:1.29083;stroke-linecap:round"
       d="m 35.674896,109.75079 -0.03366,-3.53383 c -4.121561,-2.46677 -0.522982,-4.83864 1.413535,-2.55782 3.03479,-3.36457 3.819948,1.99772 1.144289,2.55781 l 0.134622,4.00502 z"
       id="path39"
       sodipodi:nodetypes="cccccc" /><path
       id="path28"
       style="fill:#00ffff;stroke-width:0.0799999"
       d="m 34.871428,109.31288 c -5.061728,1.24462 -6.206838,-1.24822 -6.125962,0.90816 0.149608,3.98895 0.04175,1.7027 0.09774,11.63814 0.141456,4.46844 7.88543,5.23366 7.996411,0.95188 l 0.04649,-3.28988 c 0.43968,0.19169 0.986025,0.1285 1.472792,0.10817 l 0.128157,1.94458 c 0.141207,4.57368 5.637303,3.96698 6.785116,-1.35237 1.065627,-3.57028 0.803736,-7.24999 0.557072,-10.90683 -0.109124,-1.77051 -1.462364,-0.46981 -3.728743,0.50408 -2.460374,1.05725 -3.504802,-1.42168 -7.229069,-0.50593 z"
       sodipodi:nodetypes="ssccccccssss" /><path
       id="path29"
       style="fill:#000080;stroke-width:0.0799999"
       d="m 30.257739,111.83521 c 0,0 -0.07718,0.0253 0.191483,9.97284 0.07977,2.51988 4.73106,3.04996 4.785156,0.96289 l 0.05859,-3.13672 c 0.01622,-0.87664 0.557333,-1.97745 1.383293,-1.68326 2.456899,0.8751 4.957438,0.19459 5.139671,0.18834 -0.642586,0.6344 -1.218692,1.06499 -2.188169,1.32606 -0.03775,1.48457 -0.0066,3.56275 1.620277,3.55754 3.754814,-0.012 3.570946,-9.53491 3.33744,-13.078 -1.599946,2.26555 -3.714027,1.81886 -6.880449,1.29741 -2.070499,-0.34097 -2.975701,0.1008 -7.447292,0.5929 z"
       sodipodi:nodetypes="scccsccscss" /><path
       id="path33"
       style="display:inline;opacity:1;fill:#000080;stroke-width:0.0799999"
       d="m 29.151442,110.16358 c -3.557679,-0.28992 -3.71685,0.70224 -3.709316,3.15918 0.0075,2.45698 -0.699424,4.91258 3.627946,3.9489 z"
       sodipodi:nodetypes="czcc" /><path
       style="fill:#c83737;stroke-width:0.0799999"
       d="m 29.53822,77.568685 0.02139,9.464966 c 0.0053,2.338237 2.103244,4.237128 3.281742,4.160579 1.140896,-0.07411 3.188943,0 3.236539,-1.189905 0.0476,-1.189903 0.05337,-3.737989 0.196157,-4.261546 0.142788,-0.523558 2.564419,-0.212492 2.564419,-0.212492 l 0.475962,3.712501 2.427404,0.999519 2.522595,-2.332212 c 0.946997,-4.555715 0.975675,-7.769788 0.452192,-12.327834 -3.810003,10.650598 -9.383471,7.778421 -11.634281,1.65202 z"
       id="path35"
       sodipodi:nodetypes="cssssccccccc"
       clip-path="url(#clipPath37)"
       transform="translate(0,33.520941)" /></g><g
     inkscape:groupmode="layer"
     id="layer3"
     inkscape:label="Layer 3"
     style="display:inline;opacity:1"
     transform="translate(-16.187881,-100.0271)"><g
       id="g333"
       transform="translate(313.74675,94.504821)"
       inkscape:export-filename="SK_00\botskin-default-000.png"
       inkscape:export-xdpi="96"
       inkscape:export-ydpi="96"><rect
         style="fill:none;fill-opacity:1;stroke:none;stroke-width:1.29083;stroke-linecap:round"
         id="rect302"
         width="45.155556"
         height="45.155556"
         x="-297.55887"
         y="5.5222869"
         inkscape:export-filename="SK_00\botskin-default-000.png"
         inkscape:export-xdpi="96"
         inkscape:export-ydpi="96" /><g
         id="g332"
         transform="translate(-315.56979,-9.6614757)"><g
           id="g307"><path
             id="path302"
             style="display:inline;fill:#0b0b0b;fill-opacity:1;stroke-width:0.0799999"
             d="m 33.789174,29.127163 0.16658,15.040383 c -5.75948,0.665908 -6.29181,-1.53309 -6.27508,-7.707484 0.0164,-6.036279 0.79144,-7.950893 6.1085,-7.332899 z"
             sodipodi:nodetypes="ccsc" /><path
             id="path303"
             style="display:inline;fill:#0b0b0b;fill-opacity:1;stroke-width:0.0799999"
             d="m 32.808444,30.40633 c -0.23672,3.544649 -0.0814,5.764812 0.10873,13.075729 0.0267,1.027321 -2.23178,-0.04042 -3.47752,0.346156 -0.37582,0.919623 -1.89621,5.714593 -0.98884,6.233139 3.83284,2.190423 7.92103,1.504124 9.18718,-0.737758 l 1.50763,-3.06205 c 1.08753,-0.07689 2.5613,-0.27118 4.44245,-0.01495 1.20093,0.977409 3.84167,6.02797 4.85325,5.898625 1.97994,-0.615648 4.69895,-2.190593 4.5849,-5.651788 0.2453,-0.817251 -2.76842,-3.485061 -3.34075,-3.61698 0.40847,-2.788226 0.16147,-5.338043 -0.0289,-8.159819 -0.11938,-1.769847 2.05975,-3.849144 0.45972,-7.34929 -1.11335,-2.435507 -3.2754,-6.11593 -9.43714,-5.976648 -6.16174,0.139283 -7.43557,2.49972 -7.87071,9.015634 z"
             sodipodi:nodetypes="sscscccsccsscs" /><path
             id="path304"
             style="display:inline;fill:#2ca72a;fill-opacity:1;stroke-width:0.0799999"
             d="m 36.279954,23.913786 c -0.70859,0.63532 -1.91709,2.10055 -1.96474,10.10791 0.002,3.165442 0.18166,6.327755 0.21756,9.492444 0.0128,0.337462 1.52156,0.523101 1.15001,1.242288 -1.19376,0.985542 -2.98004,0.165969 -4.45796,-2.5e-4 -0.81233,0.630283 -1.30367,3.095879 -1.4008,4.114741 1.5295,0.727959 3.32377,1.193513 4.98832,0.660941 1.75835,-0.61651 2.23019,-2.756906 3.02927,-4.262272 0.88828,-1.177971 5.80509,-0.796166 6.45852,-0.467671 l 3.81683,-2.516643 c 0.15056,-1.361764 0.40701,-4.38361 0.28671,-7.139734 0.009,-1.273056 0.67734,-2.569863 0.93632,-3.787064 0.2881,-1.274581 -0.92695,-5.083754 -3.30921,-6.75791 -2.6664,-1.953608 -7.88838,-2.042087 -9.75083,-0.68678 z m 12.29641,20.165177 -2.98328,1.966805 c 1.27547,1.718792 1.82609,2.764289 2.95124,4.162537 1.02934,-0.205284 2.95695,-1.355219 2.84944,-3.47369 -0.70651,-1.57139 -2.01915,-2.03832 -2.8174,-2.655652 z"
             sodipodi:nodetypes="cccsccccccccccccccc" /><path
             id="path305"
             style="display:inline;fill:#60ed00;fill-opacity:1;stroke-width:0.0799999"
             d="m 32.907444,30.639274 c -3.76368,-1.001558 -3.90057,2.796889 -3.87591,5.776977 0.0247,2.980087 -0.4616,7.220599 3.86593,6.257302 z"
             sodipodi:nodetypes="czcc" /><path
             style="display:inline;fill:#2ca72a;fill-opacity:1;stroke-width:0.0799999"
             d="m 24.845192,73.845433 c 0.165502,-0.08907 0.408726,-0.174082 0.703623,-0.242834 1.049276,-0.244629 2.752744,-0.283414 3.937001,0.433221 0.271235,7.180755 0.317729,10.28326 -1.290941,10.307525 -4.493516,0.06778 -3.274185,-7.151417 -3.349683,-10.497912 z"
             id="path306"
             sodipodi:nodetypes="cscsc"
             clip-path="url(#clipPath11)"
             transform="translate(3.827391,-41.077162)" /><path
             id="path307"
             style="display:inline;fill:#60ed00;fill-opacity:1;stroke-width:0.0799999"
             d="m 40.158272,22.999113 c -1.605557,0.005 -3.063495,0.321727 -3.878316,0.914673 -0.354368,0.317725 -0.833713,0.842975 -1.230416,2.290299 -1.880767,15.577729 10.52724,20.082424 13.446725,8.085812 4.64e-4,0.004 0.0011,0.0084 0.0016,0.0124 0.193039,-0.996987 0.640371,-1.994824 0.842326,-2.944006 0.288099,-1.27458 -0.927101,-5.083573 -3.309359,-6.757727 -1.499848,-1.098904 -3.808221,-1.607835 -5.87251,-1.601453 z" /></g></g><g
         id="g433"
         transform="matrix(0.68871977,0,0,0.68871977,-415.59726,-31.363813)"
         style="display:inline"><circle
           style="fill:#f9f9f9;fill-opacity:1;stroke:#000000;stroke-width:0.385958"
           id="circle426"
           cx="212.15387"
           cy="75.102921"
           r="3.7124999" /><circle
           style="fill:#0b0b0b;fill-opacity:1;stroke-width:0.0799999"
           id="circle427"
           cx="212.25484"
           cy="75.102921"
           r="2.9033651" /><circle
           style="fill:#f9f9f9;fill-opacity:1;stroke:#000000;stroke-width:0.385958"
           id="circle428"
           cx="205.32982"
           cy="75.249519"
           r="3.7124999" /><circle
           style="fill:#0b0b0b;fill-opacity:1;stroke-width:0.0799999"
           id="circle429"
           cx="205.31076"
           cy="75.182205"
           r="2.9033651" /><circle
           style="fill:#f9f9f9;fill-opacity:1;stroke-width:0.0633563"
           id="circle430"
           cx="206.93472"
           cy="74.446121"
           r="0.66634244" /><circle
           style="fill:#f9f9f9;fill-opacity:1;stroke-width:0.0595155"
           id="circle431"
           cx="213.97212"
           cy="74.393784"
           r="0.62594706" /><path
           style="fill:none;fill-opacity:1;stroke:#000000;stroke-width:1.24923;stroke-linecap:round"
           d="m 202.76493,69.997594 3.71418,-0.06611"
           id="path431"
           sodipodi:nodetypes="cc" /><path
           style="fill:none;fill-opacity:1;stroke:#000000;stroke-width:1.24923;stroke-linecap:round"
           d="m 212.56467,69.946225 -2.90515,0.0062"
           id="path432"
           sodipodi:nodetypes="cc" /><path
           style="fill:none;fill-opacity:1;stroke:#000000;stroke-width:1.07431;stroke-linecap:round"
           d="m 210.78567,80.619146 c -0.0417,1.617432 -5.072,1.646704 -5.18953,-0.128666 m 2.57656,1.67058 0.004,1.078928"
           id="path433"
           sodipodi:nodetypes="cccc" /></g></g></g></svg>
