<?xml version="1.0" encoding="UTF-8" standalone="no"?>
<!-- Created with Inkscape (http://www.inkscape.org/) -->

<svg
   width="45.155563mm"
   height="45.155552mm"
   viewBox="0 0 45.155563 45.155552"
   version="1.1"
   id="svg1"
   xml:space="preserve"
   inkscape:version="1.3.2 (091e20e, 2023-11-25, custom)"
   sodipodi:docname="Amongus.svg"
   xmlns:inkscape="http://www.inkscape.org/namespaces/inkscape"
   xmlns:sodipodi="http://sodipodi.sourceforge.net/DTD/sodipodi-0.dtd"
   xmlns="http://www.w3.org/2000/svg"
   xmlns:svg="http://www.w3.org/2000/svg"><sodipodi:namedview
     id="namedview1"
     pagecolor="#ffffff"
     bordercolor="#000000"
     borderopacity="0.25"
     inkscape:showpageshadow="2"
     inkscape:pageopacity="0.0"
     inkscape:pagecheckerboard="0"
     inkscape:deskcolor="#d1d1d1"
     inkscape:document-units="mm"
     inkscape:zoom="1.3897307"
     inkscape:cx="886.14294"
     inkscape:cy="192.12356"
     inkscape:window-width="1920"
     inkscape:window-height="965"
     inkscape:window-x="-8"
     inkscape:window-y="-8"
     inkscape:window-maximized="1"
     inkscape:current-layer="layer3" /><defs
     id="defs1"><clipPath
       clipPathUnits="userSpaceOnUse"
       id="clipPath37"><path
         id="path38"
         style="fill:#000080;stroke-width:0.0799999"
         d="m 30.257739,78.314269 c 0,0 -0.07718,0.02529 0.191482,9.972839 0.07977,2.519882 4.731062,3.049961 4.785156,0.962891 l 0.05859,-3.13672 c 0.01622,-0.876639 0.557332,-1.977451 1.383292,-1.683261 2.4569,0.875101 4.957437,0.19459 5.139672,0.188341 -0.642586,0.634399 -1.218692,1.06499 -2.188171,1.32606 -0.03775,1.484569 -0.0066,3.562749 1.620277,3.55754 3.754816,-0.01199 3.570946,-9.534909 3.337441,-13.078 -1.599946,2.26555 -3.714028,1.81886 -6.88045,1.297411 -2.070497,-0.340971 -2.9757,0.100798 -7.447291,0.592899 z"
         sodipodi:nodetypes="scccsccscss" /></clipPath></defs><g
     inkscape:groupmode="layer"
     id="layer3"
     inkscape:label="Layer 3"
     style="display:inline;opacity:1"
     transform="translate(-241.96568,-100.0271)"><g
       id="g514"><rect
         style="opacity:0.59;fill:none;fill-opacity:1;stroke:none;stroke-width:1.29083;stroke-linecap:round"
         id="rect296"
         width="45.155556"
         height="45.155556"
         x="241.96567"
         y="100.02711"
         inkscape:export-filename="SK_00\botskin-default-000_death_1.png"
         inkscape:export-xdpi="96"
         inkscape:export-ydpi="96" /><g
         id="g513"><path
           id="path296"
           style="display:inline;fill:#0b0b0b;fill-opacity:1;stroke-width:0.0799999"
           d="m 257.6155,120.11324 -0.17274,9.25345 c -5.75948,0.66591 -6.54539,-0.4124 -6.00584,-6.5632 0.45291,-5.16315 5.18936,-2.88842 6.17858,-2.69025 z"
           sodipodi:nodetypes="ccsc" /><path
           style="display:inline;fill:#ffffff;fill-opacity:1;stroke:#000000;stroke-width:1.29083;stroke-linecap:round"
           d="m 263.15588,120.47082 -0.20029,-3.65282 c -3.89861,-1.51925 -0.49348,-4.83821 1.43734,-2.58162 3.30065,-3.05037 4.36325,2.64197 1.26328,2.7006 l -0.008,3.88603 z"
           id="path297"
           sodipodi:nodetypes="cccccc" /><path
           id="path298"
           style="display:inline;fill:#0b0b0b;fill-opacity:1;stroke-width:0.0799999"
           d="m 262.18582,119.91392 c -5.06172,1.24462 -6.20683,-1.24822 -6.12596,0.90816 0.14961,3.98895 0.0418,1.7027 0.0977,11.63814 0.14146,4.46843 7.88543,5.23365 7.99641,0.95188 l 0.0465,-3.28988 c 0.43968,0.19169 0.98603,0.1285 1.4728,0.10817 l 0.12815,1.94458 c 0.14121,4.57367 5.63731,3.96697 6.78512,-1.35237 1.06563,-3.57028 1.06551,-6.72643 0.81885,-10.38327 -0.10912,-1.77051 -1.72414,-0.99337 -3.99052,-0.0195 -2.46038,1.05725 -3.5048,-1.42168 -7.22907,-0.50593 z"
           sodipodi:nodetypes="ssccccccssss" /><path
           id="path299"
           style="display:inline;fill:#60ed00;fill-opacity:1;stroke-width:0.0799999"
           d="m 257.57214,122.43625 c 0,0 -0.0772,0.0253 0.19148,9.97284 0.0798,2.51987 4.73106,3.04995 4.78515,0.96289 l 0.0586,-3.13672 c 0.0162,-0.87664 0.55734,-1.97745 1.3833,-1.68326 2.4569,0.8751 4.95744,0.19459 5.13967,0.18834 -0.64259,0.6344 -1.21869,1.06499 -2.18817,1.32606 -0.0377,1.48457 -0.007,3.56274 1.62028,3.55753 3.75481,-0.012 3.57093,-9.53484 3.33743,-13.07793 -1.34712,1.7303 -4.02599,2.03573 -7.3564,1.34494 -2.30107,-0.47729 -4.07124,0.38395 -6.97134,0.54531 z"
           sodipodi:nodetypes="scccsccscss" /><path
           id="path300"
           style="display:inline;fill:#2ca72a;fill-opacity:1;stroke-width:0.0799999"
           d="m 256.1966,121.37042 c -3.44017,-0.52496 -3.16214,-0.44085 -3.30546,2.31779 -0.14331,2.75864 -1.06963,5.14817 3.25774,4.18449 z"
           sodipodi:nodetypes="czcc" /><path
           style="display:inline;fill:#2ca72a;fill-opacity:1;stroke-width:0.0799999"
           d="m 29.53822,77.568685 0.02139,9.464966 c 0.0053,2.338237 2.103244,4.237128 3.281742,4.160579 1.140896,-0.07411 3.188943,0 3.236539,-1.189905 0.0476,-1.189903 0.05337,-3.737989 0.196157,-4.261546 0.142788,-0.523558 2.564419,-0.212492 2.564419,-0.212492 l 0.475962,3.712501 2.427404,0.999519 2.522595,-2.332212 C 45.211425,83.35438 45.15681,80.889946 44.633327,76.3319 40.823324,86.982498 35.285553,83.122701 33.034743,76.9963 Z"
           id="path301"
           sodipodi:nodetypes="cssssccccccc"
           clip-path="url(#clipPath37)"
           transform="translate(227.3144,44.121977)" /></g></g></g></svg>
